<svg width="1173" height="252" viewBox="0 0 1173 252" fill="none" xmlns="http://www.w3.org/2000/svg" shape-rendering="geometricPrecision">
<mask id="path-1-outside-1_2_79" maskUnits="userSpaceOnUse" x="-0.649994" y="-0.371948" width="1174" height="252" fill="black">
<rect fill="white" x="-0.649994" y="-0.371948" width="1174" height="252"/>
<path d="M170.364 63.4905C168.858 54.463 158.112 44.1311 151.369 35.1036C147.369 27.8221 152.698 25.4091 142.227 14.1185L138.898 18.8502C133.707 26.2278 123.922 36.9399 116.98 42.7001C114.739 44.5596 112.449 46.4629 110.166 48.3805C94.2648 61.738 74.9153 89.3932 64.4634 107.42C54.7266 129.31 47.6868 152.301 43.4988 175.889C42.4295 183.408 41.8708 190.991 41.8267 198.586L41.4982 204.952C65.3383 170.74 87.2961 150.171 96.8732 140.058C109.641 127.808 123.23 116.08 126.936 111.315L172.711 84.7434L170.364 63.4905Z"/>
<path d="M53.114 121.919C47.7909 131.638 42.9881 145.08 41.3716 162.011C31.3298 147.49 19.641 146.488 3.35001 145.157C17.203 137.4 35.4784 123.542 53.114 121.919Z"/>
<path d="M43.6631 210.671C44.4432 208.895 53.3611 193.617 75.3167 171.197C95.1258 147.863 119.955 128.256 159.126 111.231C160.305 110.491 166.055 107.59 174.721 103.884C196.09 94.7443 232.529 83.271 255.715 82.2882C257.867 82.1969 259.974 82.1734 262.025 82.224C262.025 82.224 260.636 83.7947 258.427 86.3181C245.252 97.4585 212.528 114.7 229.28 128.621C200.17 135.203 151.699 153.39 124.966 168.676C101.259 181.945 78.5765 197.265 59.1025 219.001L32.9448 248.385C32.5781 226.735 43.6631 210.671 43.6631 210.671Z"/>
<path d="M115.721 122.364L145.327 82.4022L152.191 74.2332C164.123 60.0326 176.862 46.5311 190.347 33.7957C192.312 31.9399 212.258 18.3427 237.149 8.38218C242.951 6.06022 249.206 3.80284 256.039 1.62805L253.381 7.60802C246.204 23.7552 235.537 38.1105 222.147 49.6407L205.202 44.557L215.369 55.8541L214.558 56.5414C192.925 74.8746 169.687 91.2257 145.126 105.397L115.721 122.364Z"/>
<path d="M251.458 5.38737L199.135 42.9321L126.142 112.33C163.984 74.6282 202.188 36.2385 251.458 5.38737Z"/>
<path d="M251.458 5.38737L199.135 42.9321L126.442 112.03C168.854 74.3286 205.066 36.2385 251.458 5.38737Z"/>
<path d="M202.461 185.393L202.907 186.722C204.684 192.015 207.292 200.68 208.764 206.066C212.59 220.06 216.551 234.839 217.308 249.628C203.807 241.167 192.738 235.369 169.227 221.45C159.462 215.669 143.322 206.881 133.106 201.942L121.449 196.307C144.679 171.129 174.497 152.963 207.524 143.866L213.314 142.186L206.75 152.188C203.568 157.037 201.529 162.545 200.786 168.297C200.043 174.049 200.615 179.895 202.461 185.393Z"/>
<path d="M312.532 189.628H288.35L319.759 96.5371H349.714L381.123 189.628H356.941L335.077 119.992H334.35L312.532 189.628ZM309.305 152.992H359.85V170.083H309.305V152.992Z"/>
<path d="M413.373 149.81V189.628H391.145V119.81H412.282V132.628H413.055C414.6 128.355 417.236 125.007 420.964 122.583C424.691 120.128 429.13 118.901 434.282 118.901C439.191 118.901 443.449 120.007 447.055 122.219C450.691 124.401 453.509 127.461 455.509 131.401C457.539 135.31 458.539 139.886 458.509 145.128V189.628H436.282V149.492C436.312 145.613 435.327 142.583 433.327 140.401C431.358 138.219 428.615 137.128 425.1 137.128C422.767 137.128 420.706 137.643 418.918 138.674C417.161 139.674 415.797 141.113 414.827 142.992C413.888 144.87 413.403 147.143 413.373 149.81Z"/>
<path d="M472.27 189.628V119.81H494.498V189.628H472.27ZM483.407 111.674C480.286 111.674 477.604 110.643 475.361 108.583C473.119 106.492 471.998 103.977 471.998 101.037C471.998 98.128 473.119 95.6432 475.361 93.5826C477.604 91.4917 480.286 90.4462 483.407 90.4462C486.558 90.4462 489.24 91.4917 491.452 93.5826C493.695 95.6432 494.816 98.128 494.816 101.037C494.816 103.977 493.695 106.492 491.452 108.583C489.24 110.643 486.558 111.674 483.407 111.674Z"/>
<path d="M508.645 189.628V119.81H529.782V132.628H530.555C532.009 128.386 534.464 125.037 537.918 122.583C541.373 120.128 545.494 118.901 550.282 118.901C555.13 118.901 559.282 120.143 562.736 122.628C566.191 125.113 568.388 128.446 569.327 132.628H570.055C571.358 128.477 573.903 125.158 577.691 122.674C581.479 120.158 585.948 118.901 591.1 118.901C597.706 118.901 603.07 121.022 607.191 125.264C611.312 129.477 613.373 135.264 613.373 142.628V189.628H591.145V147.719C591.145 144.234 590.252 141.583 588.464 139.764C586.676 137.916 584.358 136.992 581.509 136.992C578.449 136.992 576.039 137.992 574.282 139.992C572.555 141.961 571.691 144.613 571.691 147.946V189.628H550.327V147.492C550.327 144.249 549.449 141.689 547.691 139.81C545.933 137.931 543.615 136.992 540.736 136.992C538.797 136.992 537.085 137.461 535.6 138.401C534.115 139.31 532.948 140.613 532.1 142.31C531.282 144.007 530.873 146.007 530.873 148.31V189.628H508.645Z"/>
<path d="M659.736 190.946C652.403 190.946 646.1 189.446 640.827 186.446C635.585 183.416 631.539 179.204 628.691 173.81C625.873 168.386 624.464 162.098 624.464 154.946C624.464 147.764 625.873 141.477 628.691 136.083C631.539 130.658 635.585 126.446 640.827 123.446C646.1 120.416 652.403 118.901 659.736 118.901C667.07 118.901 673.358 120.416 678.6 123.446C683.873 126.446 687.918 130.658 690.736 136.083C693.585 141.477 695.009 147.764 695.009 154.946C695.009 162.098 693.585 168.386 690.736 173.81C687.918 179.204 683.873 183.416 678.6 186.446C673.358 189.446 667.07 190.946 659.736 190.946ZM659.873 174.174C662.539 174.174 664.797 173.355 666.645 171.719C668.494 170.083 669.903 167.81 670.873 164.901C671.873 161.992 672.373 158.628 672.373 154.81C672.373 150.931 671.873 147.537 670.873 144.628C669.903 141.719 668.494 139.446 666.645 137.81C664.797 136.174 662.539 135.355 659.873 135.355C657.115 135.355 654.782 136.174 652.873 137.81C650.994 139.446 649.555 141.719 648.555 144.628C647.585 147.537 647.1 150.931 647.1 154.81C647.1 158.628 647.585 161.992 648.555 164.901C649.555 167.81 650.994 170.083 652.873 171.719C654.782 173.355 657.115 174.174 659.873 174.174Z"/>
<path d="M706.395 189.628V96.5371H769.941V114.81H728.895V133.901H765.895V152.219H728.895V189.628H706.395Z"/>
<path d="M808.736 190.946C801.403 190.946 795.1 189.446 789.827 186.446C784.585 183.416 780.539 179.204 777.691 173.81C774.873 168.386 773.464 162.098 773.464 154.946C773.464 147.764 774.873 141.477 777.691 136.083C780.539 130.658 784.585 126.446 789.827 123.446C795.1 120.416 801.403 118.901 808.736 118.901C816.07 118.901 822.358 120.416 827.6 123.446C832.873 126.446 836.918 130.658 839.736 136.083C842.585 141.477 844.009 147.764 844.009 154.946C844.009 162.098 842.585 168.386 839.736 173.81C836.918 179.204 832.873 183.416 827.6 186.446C822.358 189.446 816.07 190.946 808.736 190.946ZM808.873 174.174C811.539 174.174 813.797 173.355 815.645 171.719C817.494 170.083 818.903 167.81 819.873 164.901C820.873 161.992 821.373 158.628 821.373 154.81C821.373 150.931 820.873 147.537 819.873 144.628C818.903 141.719 817.494 139.446 815.645 137.81C813.797 136.174 811.539 135.355 808.873 135.355C806.115 135.355 803.782 136.174 801.873 137.81C799.994 139.446 798.555 141.719 797.555 144.628C796.585 147.537 796.1 150.931 796.1 154.81C796.1 158.628 796.585 161.992 797.555 164.901C798.555 167.81 799.994 170.083 801.873 171.719C803.782 173.355 806.115 174.174 808.873 174.174Z"/>
<path d="M855.395 189.628V119.81H876.986V132.537H877.714C878.986 127.931 881.062 124.507 883.941 122.264C886.82 119.992 890.168 118.855 893.986 118.855C895.017 118.855 896.077 118.931 897.168 119.083C898.259 119.204 899.274 119.401 900.214 119.674V138.992C899.153 138.628 897.759 138.34 896.032 138.128C894.335 137.916 892.82 137.81 891.486 137.81C888.85 137.81 886.471 138.401 884.35 139.583C882.259 140.734 880.608 142.355 879.395 144.446C878.214 146.507 877.623 148.931 877.623 151.719V189.628H855.395Z"/>
<path d="M954.316 159.492V119.81H976.498V189.628H955.316V176.628H954.589C953.043 180.901 950.407 184.295 946.68 186.81C942.983 189.295 938.513 190.537 933.27 190.537C928.513 190.537 924.331 189.446 920.725 187.264C917.119 185.083 914.316 182.037 912.316 178.128C910.316 174.189 909.301 169.583 909.27 164.31V119.81H931.498V159.946C931.528 163.734 932.528 166.719 934.498 168.901C936.467 171.083 939.149 172.174 942.543 172.174C944.755 172.174 946.74 171.689 948.498 170.719C950.286 169.719 951.695 168.28 952.725 166.401C953.786 164.492 954.316 162.189 954.316 159.492Z"/>
<path d="M990.645 189.628V119.81H1011.78V132.628H1012.55C1014.01 128.386 1016.46 125.037 1019.92 122.583C1023.37 120.128 1027.49 118.901 1032.28 118.901C1037.13 118.901 1041.28 120.143 1044.74 122.628C1048.19 125.113 1050.39 128.446 1051.33 132.628H1052.05C1053.36 128.477 1055.9 125.158 1059.69 122.674C1063.48 120.158 1067.95 118.901 1073.1 118.901C1079.71 118.901 1085.07 121.022 1089.19 125.264C1093.31 129.477 1095.37 135.264 1095.37 142.628V189.628H1073.15V147.719C1073.15 144.234 1072.25 141.583 1070.46 139.764C1068.68 137.916 1066.36 136.992 1063.51 136.992C1060.45 136.992 1058.04 137.992 1056.28 139.992C1054.55 141.961 1053.69 144.613 1053.69 147.946V189.628H1032.33V147.492C1032.33 144.249 1031.45 141.689 1029.69 139.81C1027.93 137.931 1025.62 136.992 1022.74 136.992C1020.8 136.992 1019.08 137.461 1017.6 138.401C1016.12 139.31 1014.95 140.613 1014.1 142.31C1013.28 144.007 1012.87 146.007 1012.87 148.31V189.628H990.645Z"/>
<path d="M1170.1 141.128L1149.69 141.674C1149.48 140.219 1148.9 138.931 1147.96 137.81C1147.02 136.658 1145.8 135.764 1144.28 135.128C1142.8 134.461 1141.07 134.128 1139.1 134.128C1136.52 134.128 1134.33 134.643 1132.51 135.674C1130.72 136.704 1129.84 138.098 1129.87 139.855C1129.84 141.219 1130.39 142.401 1131.51 143.401C1132.66 144.401 1134.71 145.204 1137.65 145.81L1151.1 148.355C1158.07 149.689 1163.25 151.901 1166.65 154.992C1170.07 158.083 1171.8 162.174 1171.83 167.264C1171.8 172.052 1170.37 176.219 1167.55 179.764C1164.77 183.31 1160.95 186.067 1156.1 188.037C1151.25 189.977 1145.71 190.946 1139.46 190.946C1129.49 190.946 1121.63 188.901 1115.87 184.81C1110.15 180.689 1106.87 175.174 1106.05 168.264L1128.01 167.719C1128.49 170.264 1129.75 172.204 1131.78 173.537C1133.81 174.87 1136.4 175.537 1139.55 175.537C1142.4 175.537 1144.72 175.007 1146.51 173.946C1148.3 172.886 1149.21 171.477 1149.24 169.719C1149.21 168.143 1148.51 166.886 1147.15 165.946C1145.78 164.977 1143.65 164.219 1140.74 163.674L1128.55 161.355C1121.55 160.083 1116.34 157.734 1112.92 154.31C1109.49 150.855 1107.8 146.461 1107.83 141.128C1107.8 136.461 1109.04 132.477 1111.55 129.174C1114.07 125.84 1117.65 123.295 1122.28 121.537C1126.92 119.78 1132.39 118.901 1138.69 118.901C1148.15 118.901 1155.6 120.886 1161.05 124.855C1166.51 128.795 1169.52 134.219 1170.1 141.128Z"/>
</mask>
<path d="M170.364 63.4905C168.858 54.463 158.112 44.1311 151.369 35.1036C147.369 27.8221 152.698 25.4091 142.227 14.1185L138.898 18.8502C133.707 26.2278 123.922 36.9399 116.98 42.7001C114.739 44.5596 112.449 46.4629 110.166 48.3805C94.2648 61.738 74.9153 89.3932 64.4634 107.42C54.7266 129.31 47.6868 152.301 43.4988 175.889C42.4295 183.408 41.8708 190.991 41.8267 198.586L41.4982 204.952C65.3383 170.74 87.2961 150.171 96.8732 140.058C109.641 127.808 123.23 116.08 126.936 111.315L172.711 84.7434L170.364 63.4905Z" fill="#198A39"/>
<path d="M53.114 121.919C47.7909 131.638 42.9881 145.08 41.3716 162.011C31.3298 147.49 19.641 146.488 3.35001 145.157C17.203 137.4 35.4784 123.542 53.114 121.919Z" fill="#639C73"/>
<path d="M43.6631 210.671C44.4432 208.895 53.3611 193.617 75.3167 171.197C95.1258 147.863 119.955 128.256 159.126 111.231C160.305 110.491 166.055 107.59 174.721 103.884C196.09 94.7443 232.529 83.271 255.715 82.2882C257.867 82.1969 259.974 82.1734 262.025 82.224C262.025 82.224 260.636 83.7947 258.427 86.3181C245.252 97.4585 212.528 114.7 229.28 128.621C200.17 135.203 151.699 153.39 124.966 168.676C101.259 181.945 78.5765 197.265 59.1025 219.001L32.9448 248.385C32.5781 226.735 43.6631 210.671 43.6631 210.671Z" fill="#198A39"/>
<path d="M115.721 122.364L145.327 82.4022L152.191 74.2332C164.123 60.0326 176.862 46.5311 190.347 33.7957C192.312 31.9399 212.258 18.3427 237.149 8.38218C242.951 6.06022 249.206 3.80284 256.039 1.62805L253.381 7.60802C246.204 23.7552 235.537 38.1105 222.147 49.6407L205.202 44.557L215.369 55.8541L214.558 56.5414C192.925 74.8746 169.687 91.2257 145.126 105.397L115.721 122.364Z" fill="#8DD35F"/>
<path d="M251.458 5.38737L199.135 42.9321L126.142 112.33C163.984 74.6282 202.188 36.2385 251.458 5.38737Z" fill="#F9F9F9"/>
<path d="M251.458 5.38737L199.135 42.9321L126.442 112.03C168.854 74.3286 205.066 36.2385 251.458 5.38737Z" fill="#F9F9F9"/>
<path d="M202.461 185.393L202.907 186.722C204.684 192.015 207.292 200.68 208.764 206.066C212.59 220.06 216.551 234.839 217.308 249.628C203.807 241.167 192.738 235.369 169.227 221.45C159.462 215.669 143.322 206.881 133.106 201.942L121.449 196.307C144.679 171.129 174.497 152.963 207.524 143.866L213.314 142.186L206.75 152.188C203.568 157.037 201.529 162.545 200.786 168.297C200.043 174.049 200.615 179.895 202.461 185.393Z" fill="#639C73"/>
<path d="M312.532 189.628H288.35L319.759 96.5371H349.714L381.123 189.628H356.941L335.077 119.992H334.35L312.532 189.628ZM309.305 152.992H359.85V170.083H309.305V152.992Z" fill="#198A39"/>
<path d="M413.373 149.81V189.628H391.145V119.81H412.282V132.628H413.055C414.6 128.355 417.236 125.007 420.964 122.583C424.691 120.128 429.13 118.901 434.282 118.901C439.191 118.901 443.449 120.007 447.055 122.219C450.691 124.401 453.509 127.461 455.509 131.401C457.539 135.31 458.539 139.886 458.509 145.128V189.628H436.282V149.492C436.312 145.613 435.327 142.583 433.327 140.401C431.358 138.219 428.615 137.128 425.1 137.128C422.767 137.128 420.706 137.643 418.918 138.674C417.161 139.674 415.797 141.113 414.827 142.992C413.888 144.87 413.403 147.143 413.373 149.81Z" fill="#198A39"/>
<path d="M472.27 189.628V119.81H494.498V189.628H472.27ZM483.407 111.674C480.286 111.674 477.604 110.643 475.361 108.583C473.119 106.492 471.998 103.977 471.998 101.037C471.998 98.128 473.119 95.6432 475.361 93.5826C477.604 91.4917 480.286 90.4462 483.407 90.4462C486.558 90.4462 489.24 91.4917 491.452 93.5826C493.695 95.6432 494.816 98.128 494.816 101.037C494.816 103.977 493.695 106.492 491.452 108.583C489.24 110.643 486.558 111.674 483.407 111.674Z" fill="#198A39"/>
<path d="M508.645 189.628V119.81H529.782V132.628H530.555C532.009 128.386 534.464 125.037 537.918 122.583C541.373 120.128 545.494 118.901 550.282 118.901C555.13 118.901 559.282 120.143 562.736 122.628C566.191 125.113 568.388 128.446 569.327 132.628H570.055C571.358 128.477 573.903 125.158 577.691 122.674C581.479 120.158 585.948 118.901 591.1 118.901C597.706 118.901 603.07 121.022 607.191 125.264C611.312 129.477 613.373 135.264 613.373 142.628V189.628H591.145V147.719C591.145 144.234 590.252 141.583 588.464 139.764C586.676 137.916 584.358 136.992 581.509 136.992C578.449 136.992 576.039 137.992 574.282 139.992C572.555 141.961 571.691 144.613 571.691 147.946V189.628H550.327V147.492C550.327 144.249 549.449 141.689 547.691 139.81C545.933 137.931 543.615 136.992 540.736 136.992C538.797 136.992 537.085 137.461 535.6 138.401C534.115 139.31 532.948 140.613 532.1 142.31C531.282 144.007 530.873 146.007 530.873 148.31V189.628H508.645Z" fill="#198A39"/>
<path d="M659.736 190.946C652.403 190.946 646.1 189.446 640.827 186.446C635.585 183.416 631.539 179.204 628.691 173.81C625.873 168.386 624.464 162.098 624.464 154.946C624.464 147.764 625.873 141.477 628.691 136.083C631.539 130.658 635.585 126.446 640.827 123.446C646.1 120.416 652.403 118.901 659.736 118.901C667.07 118.901 673.358 120.416 678.6 123.446C683.873 126.446 687.918 130.658 690.736 136.083C693.585 141.477 695.009 147.764 695.009 154.946C695.009 162.098 693.585 168.386 690.736 173.81C687.918 179.204 683.873 183.416 678.6 186.446C673.358 189.446 667.07 190.946 659.736 190.946ZM659.873 174.174C662.539 174.174 664.797 173.355 666.645 171.719C668.494 170.083 669.903 167.81 670.873 164.901C671.873 161.992 672.373 158.628 672.373 154.81C672.373 150.931 671.873 147.537 670.873 144.628C669.903 141.719 668.494 139.446 666.645 137.81C664.797 136.174 662.539 135.355 659.873 135.355C657.115 135.355 654.782 136.174 652.873 137.81C650.994 139.446 649.555 141.719 648.555 144.628C647.585 147.537 647.1 150.931 647.1 154.81C647.1 158.628 647.585 161.992 648.555 164.901C649.555 167.81 650.994 170.083 652.873 171.719C654.782 173.355 657.115 174.174 659.873 174.174Z" fill="#198A39"/>
<path d="M706.395 189.628V96.5371H769.941V114.81H728.895V133.901H765.895V152.219H728.895V189.628H706.395Z" fill="#198A39"/>
<path d="M808.736 190.946C801.403 190.946 795.1 189.446 789.827 186.446C784.585 183.416 780.539 179.204 777.691 173.81C774.873 168.386 773.464 162.098 773.464 154.946C773.464 147.764 774.873 141.477 777.691 136.083C780.539 130.658 784.585 126.446 789.827 123.446C795.1 120.416 801.403 118.901 808.736 118.901C816.07 118.901 822.358 120.416 827.6 123.446C832.873 126.446 836.918 130.658 839.736 136.083C842.585 141.477 844.009 147.764 844.009 154.946C844.009 162.098 842.585 168.386 839.736 173.81C836.918 179.204 832.873 183.416 827.6 186.446C822.358 189.446 816.07 190.946 808.736 190.946ZM808.873 174.174C811.539 174.174 813.797 173.355 815.645 171.719C817.494 170.083 818.903 167.81 819.873 164.901C820.873 161.992 821.373 158.628 821.373 154.81C821.373 150.931 820.873 147.537 819.873 144.628C818.903 141.719 817.494 139.446 815.645 137.81C813.797 136.174 811.539 135.355 808.873 135.355C806.115 135.355 803.782 136.174 801.873 137.81C799.994 139.446 798.555 141.719 797.555 144.628C796.585 147.537 796.1 150.931 796.1 154.81C796.1 158.628 796.585 161.992 797.555 164.901C798.555 167.81 799.994 170.083 801.873 171.719C803.782 173.355 806.115 174.174 808.873 174.174Z" fill="#198A39"/>
<path d="M855.395 189.628V119.81H876.986V132.537H877.714C878.986 127.931 881.062 124.507 883.941 122.264C886.82 119.992 890.168 118.855 893.986 118.855C895.017 118.855 896.077 118.931 897.168 119.083C898.259 119.204 899.274 119.401 900.214 119.674V138.992C899.153 138.628 897.759 138.34 896.032 138.128C894.335 137.916 892.82 137.81 891.486 137.81C888.85 137.81 886.471 138.401 884.35 139.583C882.259 140.734 880.608 142.355 879.395 144.446C878.214 146.507 877.623 148.931 877.623 151.719V189.628H855.395Z" fill="#198A39"/>
<path d="M954.316 159.492V119.81H976.498V189.628H955.316V176.628H954.589C953.043 180.901 950.407 184.295 946.68 186.81C942.983 189.295 938.513 190.537 933.27 190.537C928.513 190.537 924.331 189.446 920.725 187.264C917.119 185.083 914.316 182.037 912.316 178.128C910.316 174.189 909.301 169.583 909.27 164.31V119.81H931.498V159.946C931.528 163.734 932.528 166.719 934.498 168.901C936.467 171.083 939.149 172.174 942.543 172.174C944.755 172.174 946.74 171.689 948.498 170.719C950.286 169.719 951.695 168.28 952.725 166.401C953.786 164.492 954.316 162.189 954.316 159.492Z" fill="#198A39"/>
<path d="M990.645 189.628V119.81H1011.78V132.628H1012.55C1014.01 128.386 1016.46 125.037 1019.92 122.583C1023.37 120.128 1027.49 118.901 1032.28 118.901C1037.13 118.901 1041.28 120.143 1044.74 122.628C1048.19 125.113 1050.39 128.446 1051.33 132.628H1052.05C1053.36 128.477 1055.9 125.158 1059.69 122.674C1063.48 120.158 1067.95 118.901 1073.1 118.901C1079.71 118.901 1085.07 121.022 1089.19 125.264C1093.31 129.477 1095.37 135.264 1095.37 142.628V189.628H1073.15V147.719C1073.15 144.234 1072.25 141.583 1070.46 139.764C1068.68 137.916 1066.36 136.992 1063.51 136.992C1060.45 136.992 1058.04 137.992 1056.28 139.992C1054.55 141.961 1053.69 144.613 1053.69 147.946V189.628H1032.33V147.492C1032.33 144.249 1031.45 141.689 1029.69 139.81C1027.93 137.931 1025.62 136.992 1022.74 136.992C1020.8 136.992 1019.08 137.461 1017.6 138.401C1016.12 139.31 1014.95 140.613 1014.1 142.31C1013.28 144.007 1012.87 146.007 1012.87 148.31V189.628H990.645Z" fill="#198A39"/>
<path d="M1170.1 141.128L1149.69 141.674C1149.48 140.219 1148.9 138.931 1147.96 137.81C1147.02 136.658 1145.8 135.764 1144.28 135.128C1142.8 134.461 1141.07 134.128 1139.1 134.128C1136.52 134.128 1134.33 134.643 1132.51 135.674C1130.72 136.704 1129.84 138.098 1129.87 139.855C1129.84 141.219 1130.39 142.401 1131.51 143.401C1132.66 144.401 1134.71 145.204 1137.65 145.81L1151.1 148.355C1158.07 149.689 1163.25 151.901 1166.65 154.992C1170.07 158.083 1171.8 162.174 1171.83 167.264C1171.8 172.052 1170.37 176.219 1167.55 179.764C1164.77 183.31 1160.95 186.067 1156.1 188.037C1151.25 189.977 1145.71 190.946 1139.46 190.946C1129.49 190.946 1121.63 188.901 1115.87 184.81C1110.15 180.689 1106.87 175.174 1106.05 168.264L1128.01 167.719C1128.49 170.264 1129.75 172.204 1131.78 173.537C1133.81 174.87 1136.4 175.537 1139.55 175.537C1142.4 175.537 1144.72 175.007 1146.51 173.946C1148.3 172.886 1149.21 171.477 1149.24 169.719C1149.21 168.143 1148.51 166.886 1147.15 165.946C1145.78 164.977 1143.65 164.219 1140.74 163.674L1128.55 161.355C1121.55 160.083 1116.34 157.734 1112.92 154.31C1109.49 150.855 1107.8 146.461 1107.83 141.128C1107.8 136.461 1109.04 132.477 1111.55 129.174C1114.07 125.84 1117.65 123.295 1122.28 121.537C1126.92 119.78 1132.39 118.901 1138.69 118.901C1148.15 118.901 1155.6 120.886 1161.05 124.855C1166.51 128.795 1169.52 134.219 1170.1 141.128Z" fill="#198A39"/>
<path d="M251.458 5.38737L251.166 4.98114L198.843 42.5259L199.135 42.9321L199.426 43.3384L251.749 5.79361L251.458 5.38737ZM170.364 63.4905L171.357 63.3807L171.354 63.3532L171.35 63.326L170.364 63.4905ZM151.369 35.1036L150.492 35.5851L150.526 35.6462L150.568 35.7021L151.369 35.1036ZM142.227 14.1185L142.96 13.4385L142.12 12.5326L141.409 13.5431L142.227 14.1185ZM138.898 18.8502L139.715 19.4256V19.4256L138.898 18.8502ZM116.98 42.7001L117.619 43.4697V43.4697L116.98 42.7001ZM110.166 48.3805L110.81 49.1462V49.1462L110.166 48.3805ZM64.4634 107.42L63.5983 106.919L63.5714 106.965L63.5497 107.014L64.4634 107.42ZM43.4988 175.889L42.5142 175.714L42.5112 175.731L42.5087 175.748L43.4988 175.889ZM41.8267 198.586L42.8253 198.637L42.8265 198.614L42.8266 198.591L41.8267 198.586ZM41.4982 204.952L40.4996 204.901L40.3194 208.393L42.3187 205.524L41.4982 204.952ZM96.8732 140.058L96.1809 139.336L96.1636 139.353L96.1471 139.37L96.8732 140.058ZM126.936 111.315L126.434 110.45L126.266 110.548L126.147 110.701L126.936 111.315ZM172.711 84.7434L173.213 85.6083L173.776 85.2812L173.705 84.6336L172.711 84.7434ZM53.114 121.919L53.991 122.399L54.8938 120.751L53.0223 120.923L53.114 121.919ZM41.3716 162.011L40.5491 162.58L42.1068 164.833L42.3671 162.106L41.3716 162.011ZM3.35001 145.157L2.86147 144.284L3.8147e-06 145.886L3.26856 146.153L3.35001 145.157ZM43.6631 210.671L44.4861 211.239L44.5403 211.161L44.5786 211.073L43.6631 210.671ZM75.3167 171.197L76.0311 171.897L76.056 171.872L76.079 171.845L75.3167 171.197ZM159.126 111.231L159.525 112.148L159.594 112.118L159.658 112.078L159.126 111.231ZM174.721 103.884L175.114 104.803L174.721 103.884ZM255.715 82.2882L255.757 83.2873H255.757L255.715 82.2882ZM262.025 82.224L262.774 82.8863L264.197 81.2772L262.049 81.2243L262.025 82.224ZM258.427 86.3181L259.072 87.0817L259.13 87.0333L259.179 86.9769L258.427 86.3181ZM229.28 128.621L229.501 129.597L231.48 129.149L229.92 127.852L229.28 128.621ZM124.966 168.676L125.455 169.549L125.463 169.544L124.966 168.676ZM59.1025 219.001L58.3577 218.334L58.3556 218.336L59.1025 219.001ZM32.9448 248.385L31.9449 248.402L31.9883 250.964L33.6917 249.05L32.9448 248.385ZM115.721 122.364L114.917 121.769L116.22 123.23L115.721 122.364ZM145.327 82.4022L144.561 81.7589L144.542 81.7824L144.524 81.8069L145.327 82.4022ZM152.191 74.2332L152.957 74.8765V74.8765L152.191 74.2332ZM190.347 33.7957L191.033 34.5227V34.5227L190.347 33.7957ZM237.149 8.38218L236.777 7.45376V7.45376L237.149 8.38218ZM256.039 1.62805L256.952 2.03419L257.856 -8.82149e-06L255.735 0.675157L256.039 1.62805ZM253.381 7.60802L254.295 8.01416V8.01416L253.381 7.60802ZM222.147 49.6407L221.86 50.5985L222.385 50.7559L222.8 50.3984L222.147 49.6407ZM205.202 44.557L205.489 43.5992L202.072 42.5739L204.458 45.2259L205.202 44.557ZM215.369 55.8541L216.016 56.617L216.802 55.9509L216.112 55.1851L215.369 55.8541ZM214.558 56.5414L213.911 55.7785V55.7785L214.558 56.5414ZM145.126 105.397L145.626 106.263V106.263L145.126 105.397ZM251.458 5.38737L252.011 6.22006L250.927 4.53982L251.458 5.38737ZM199.135 42.9321L199.824 43.6569L198.446 42.2073L199.135 42.9321ZM126.142 112.33L125.436 111.622L126.831 113.055L126.142 112.33ZM126.442 112.03L125.753 111.306L127.106 112.778L126.442 112.03ZM202.461 185.393L203.409 185.075V185.075L202.461 185.393ZM202.907 186.722L201.959 187.04V187.04L202.907 186.722ZM208.764 206.066L209.729 205.802V205.802L208.764 206.066ZM217.308 249.628L216.777 250.475L218.405 251.496L218.307 249.577L217.308 249.628ZM169.227 221.45L168.717 222.311V222.311L169.227 221.45ZM133.106 201.942L133.541 201.042V201.042L133.106 201.942ZM121.449 196.307L120.714 195.628L119.799 196.62L121.014 197.207L121.449 196.307ZM207.524 143.866L207.789 144.83L207.802 144.826L207.524 143.866ZM213.314 142.186L214.15 142.735L215.635 140.471L213.035 141.226L213.314 142.186ZM206.75 152.188L207.586 152.736V152.736L206.75 152.188ZM312.532 189.628V190.628H313.266L313.486 189.927L312.532 189.628ZM288.35 189.628L287.402 189.308L286.957 190.628H288.35V189.628ZM319.759 96.5371V95.5371H319.041L318.812 96.2174L319.759 96.5371ZM349.714 96.5371L350.661 96.2174L350.432 95.5371H349.714V96.5371ZM381.123 189.628V190.628H382.516L382.07 189.308L381.123 189.628ZM356.941 189.628L355.987 189.928L356.207 190.628H356.941V189.628ZM335.077 119.992L336.031 119.692L335.811 118.992H335.077V119.992ZM334.35 119.992V118.992H333.615L333.396 119.693L334.35 119.992ZM309.305 152.992V151.992H308.305V152.992H309.305ZM359.85 152.992H360.85V151.992H359.85V152.992ZM359.85 170.083V171.083H360.85V170.083H359.85ZM309.305 170.083H308.305V171.083H309.305V170.083ZM413.373 149.81L412.373 149.799V149.81H413.373ZM413.373 189.628V190.628H414.373V189.628H413.373ZM391.145 189.628H390.145V190.628H391.145V189.628ZM391.145 119.81V118.81H390.145V119.81H391.145ZM412.282 119.81H413.282V118.81H412.282V119.81ZM412.282 132.628H411.282V133.628H412.282V132.628ZM413.055 132.628V133.628H413.756L413.995 132.968L413.055 132.628ZM420.964 122.583L421.509 123.421L421.514 123.418L420.964 122.583ZM447.055 122.219L446.532 123.071L446.54 123.076L447.055 122.219ZM455.509 131.401L454.617 131.853L454.622 131.862L455.509 131.401ZM458.509 145.128L457.509 145.122V145.128H458.509ZM458.509 189.628V190.628H459.509V189.628H458.509ZM436.282 189.628H435.282V190.628H436.282V189.628ZM436.282 149.492L435.282 149.484V149.492H436.282ZM433.327 140.401L432.585 141.071L432.59 141.076L433.327 140.401ZM418.918 138.674L419.413 139.543L419.417 139.54L418.918 138.674ZM414.827 142.992L413.939 142.533L413.933 142.544L414.827 142.992ZM472.27 189.628H471.27V190.628H472.27V189.628ZM472.27 119.81V118.81H471.27V119.81H472.27ZM494.498 119.81H495.498V118.81H494.498V119.81ZM494.498 189.628V190.628H495.498V189.628H494.498ZM475.361 108.583L474.679 109.314L474.685 109.319L475.361 108.583ZM475.361 93.5826L476.038 94.3189L476.043 94.314L475.361 93.5826ZM491.452 93.5826L490.765 94.3094L490.776 94.3189L491.452 93.5826ZM491.452 108.583L492.134 109.314L492.134 109.314L491.452 108.583ZM508.645 189.628H507.645V190.628H508.645V189.628ZM508.645 119.81V118.81H507.645V119.81H508.645ZM529.782 119.81H530.782V118.81H529.782V119.81ZM529.782 132.628H528.782V133.628H529.782V132.628ZM530.555 132.628V133.628H531.269L531.5 132.952L530.555 132.628ZM537.918 122.583L538.497 123.398V123.398L537.918 122.583ZM562.736 122.628L562.152 123.44V123.44L562.736 122.628ZM569.327 132.628L568.352 132.847L568.527 133.628H569.327V132.628ZM570.055 132.628V133.628H570.789L571.009 132.928L570.055 132.628ZM577.691 122.674L578.239 123.51L578.244 123.507L577.691 122.674ZM607.191 125.264L606.474 125.961L606.476 125.964L607.191 125.264ZM613.373 189.628V190.628H614.373V189.628H613.373ZM591.145 189.628H590.145V190.628H591.145V189.628ZM588.464 139.764L587.745 140.46L587.751 140.466L588.464 139.764ZM574.282 139.992L573.531 139.332L573.53 139.332L574.282 139.992ZM571.691 189.628V190.628H572.691V189.628H571.691ZM550.327 189.628H549.327V190.628H550.327V189.628ZM547.691 139.81L548.421 139.127V139.127L547.691 139.81ZM535.6 138.401L536.122 139.254L536.128 139.25L536.135 139.246L535.6 138.401ZM532.1 142.31L531.206 141.863L531.202 141.869L531.199 141.876L532.1 142.31ZM530.873 189.628V190.628H531.873V189.628H530.873ZM640.827 186.446L640.327 187.312L640.333 187.315L640.827 186.446ZM628.691 173.81L627.803 174.271L627.807 174.277L628.691 173.81ZM628.691 136.083L627.806 135.618L627.805 135.62L628.691 136.083ZM640.827 123.446L641.324 124.314L641.326 124.313L640.827 123.446ZM678.6 123.446L678.1 124.312L678.105 124.315L678.6 123.446ZM690.736 136.083L689.849 136.544L689.852 136.55L690.736 136.083ZM690.736 173.81L689.851 173.345L689.85 173.347L690.736 173.81ZM678.6 186.446L679.097 187.314L679.098 187.313L678.6 186.446ZM666.645 171.719L665.983 170.97V170.97L666.645 171.719ZM670.873 164.901L669.927 164.576L669.924 164.585L670.873 164.901ZM670.873 144.628L669.924 144.944L669.927 144.953L670.873 144.628ZM666.645 137.81L667.308 137.061V137.061L666.645 137.81ZM652.873 137.81L652.222 137.051L652.216 137.056L652.873 137.81ZM648.555 144.628L647.609 144.303L647.606 144.312L648.555 144.628ZM648.555 164.901L647.606 165.217L647.609 165.226L648.555 164.901ZM652.873 171.719L652.216 172.473L652.222 172.478L652.873 171.719ZM706.395 189.628H705.395V190.628H706.395V189.628ZM706.395 96.5371V95.5371H705.395V96.5371H706.395ZM769.941 96.5371H770.941V95.5371H769.941V96.5371ZM769.941 114.81V115.81H770.941V114.81H769.941ZM728.895 114.81V113.81H727.895V114.81H728.895ZM728.895 133.901H727.895V134.901H728.895V133.901ZM765.895 133.901H766.895V132.901H765.895V133.901ZM765.895 152.219V153.219H766.895V152.219H765.895ZM728.895 152.219V151.219H727.895V152.219H728.895ZM728.895 189.628V190.628H729.895V189.628H728.895ZM789.827 186.446L789.327 187.312L789.333 187.315L789.827 186.446ZM777.691 173.81L776.803 174.271L776.807 174.277L777.691 173.81ZM777.691 136.083L776.806 135.618L776.805 135.62L777.691 136.083ZM789.827 123.446L790.324 124.314L790.326 124.313L789.827 123.446ZM827.6 123.446L827.1 124.312L827.105 124.315L827.6 123.446ZM839.736 136.083L838.849 136.544L838.852 136.55L839.736 136.083ZM839.736 173.81L838.851 173.345L838.85 173.347L839.736 173.81ZM827.6 186.446L828.097 187.314L828.098 187.313L827.6 186.446ZM815.645 171.719L814.983 170.97V170.97L815.645 171.719ZM819.873 164.901L818.927 164.576L818.924 164.585L819.873 164.901ZM819.873 144.628L818.924 144.944L818.927 144.953L819.873 144.628ZM815.645 137.81L816.308 137.061V137.061L815.645 137.81ZM801.873 137.81L801.222 137.051L801.216 137.056L801.873 137.81ZM797.555 144.628L796.609 144.303L796.606 144.312L797.555 144.628ZM797.555 164.901L796.606 165.217L796.609 165.226L797.555 164.901ZM801.873 171.719L801.216 172.473L801.222 172.478L801.873 171.719ZM855.395 189.628H854.395V190.628H855.395V189.628ZM855.395 119.81V118.81H854.395V119.81H855.395ZM876.986 119.81H877.986V118.81H876.986V119.81ZM876.986 132.537H875.986V133.537H876.986V132.537ZM877.714 132.537V133.537H878.475L878.678 132.803L877.714 132.537ZM883.941 122.264L884.555 123.053L884.561 123.049L883.941 122.264ZM897.168 119.083L897.031 120.073L897.044 120.075L897.058 120.076L897.168 119.083ZM900.214 119.674H901.214V118.923L900.492 118.713L900.214 119.674ZM900.214 138.992L899.889 139.938L901.214 140.392V138.992H900.214ZM896.032 138.128L895.908 139.12L895.91 139.121L896.032 138.128ZM884.35 139.583L884.832 140.459L884.837 140.456L884.35 139.583ZM879.395 144.446L878.53 143.945L878.528 143.949L879.395 144.446ZM877.623 189.628V190.628H878.623V189.628H877.623ZM954.316 119.81V118.81H953.316V119.81H954.316ZM976.498 119.81H977.498V118.81H976.498V119.81ZM976.498 189.628V190.628H977.498V189.628H976.498ZM955.316 189.628H954.316V190.628H955.316V189.628ZM955.316 176.628H956.316V175.628H955.316V176.628ZM954.589 176.628V175.628H953.887L953.648 176.288L954.589 176.628ZM946.68 186.81L947.237 187.64L947.239 187.639L946.68 186.81ZM920.725 187.264L920.207 188.12V188.12L920.725 187.264ZM912.316 178.128L911.424 178.581L911.426 178.584L912.316 178.128ZM909.27 164.31H908.27V164.316L909.27 164.31ZM909.27 119.81V118.81H908.27V119.81H909.27ZM931.498 119.81H932.498V118.81H931.498V119.81ZM931.498 159.946H930.498L930.498 159.954L931.498 159.946ZM934.498 168.901L935.24 168.231V168.231L934.498 168.901ZM948.498 170.719L948.981 171.595L948.986 171.592L948.498 170.719ZM952.725 166.401L951.851 165.915L951.848 165.92L952.725 166.401ZM990.645 189.628H989.645V190.628H990.645V189.628ZM990.645 119.81V118.81H989.645V119.81H990.645ZM1011.78 119.81H1012.78V118.81H1011.78V119.81ZM1011.78 132.628H1010.78V133.628H1011.78V132.628ZM1012.55 132.628V133.628H1013.27L1013.5 132.952L1012.55 132.628ZM1019.92 122.583L1020.5 123.398V123.398L1019.92 122.583ZM1044.74 122.628L1044.15 123.44V123.44L1044.74 122.628ZM1051.33 132.628L1050.35 132.847L1050.53 133.628H1051.33V132.628ZM1052.05 132.628V133.628H1052.79L1053.01 132.928L1052.05 132.628ZM1059.69 122.674L1060.24 123.51L1060.24 123.507L1059.69 122.674ZM1089.19 125.264L1088.47 125.961L1088.48 125.964L1089.19 125.264ZM1095.37 189.628V190.628H1096.37V189.628H1095.37ZM1073.15 189.628H1072.15V190.628H1073.15V189.628ZM1070.46 139.764L1069.74 140.46L1069.75 140.466L1070.46 139.764ZM1056.28 139.992L1055.53 139.332L1055.53 139.332L1056.28 139.992ZM1053.69 189.628V190.628H1054.69V189.628H1053.69ZM1032.33 189.628H1031.33V190.628H1032.33V189.628ZM1029.69 139.81L1030.42 139.127V139.127L1029.69 139.81ZM1017.6 138.401L1018.12 139.254L1018.13 139.25L1018.13 139.246L1017.6 138.401ZM1014.1 142.31L1013.21 141.863L1013.2 141.869L1013.2 141.876L1014.1 142.31ZM1012.87 189.628V190.628H1013.87V189.628H1012.87ZM1170.1 141.128L1170.13 142.128L1171.18 142.099L1171.1 141.045L1170.1 141.128ZM1149.69 141.674L1148.7 141.818L1148.83 142.697L1149.72 142.673L1149.69 141.674ZM1147.96 137.81L1147.19 138.442L1147.2 138.452L1147.96 137.81ZM1144.28 135.128L1143.87 136.04L1143.88 136.045L1143.89 136.05L1144.28 135.128ZM1132.51 135.674L1132.02 134.803L1132.01 134.807L1132.51 135.674ZM1129.87 139.855L1130.87 139.878L1130.87 139.858L1130.87 139.838L1129.87 139.855ZM1131.51 143.401L1130.84 144.147L1130.85 144.156L1131.51 143.401ZM1137.65 145.81L1137.44 146.789L1137.45 146.791L1137.46 146.792L1137.65 145.81ZM1151.1 148.355L1151.29 147.373L1151.29 147.373L1151.1 148.355ZM1166.65 154.992L1165.97 155.731L1165.98 155.734L1166.65 154.992ZM1171.83 167.264L1172.83 167.271V167.258L1171.83 167.264ZM1167.55 179.764L1166.77 179.142L1166.77 179.146L1167.55 179.764ZM1156.1 188.037L1156.47 188.966L1156.48 188.964L1156.1 188.037ZM1115.87 184.81L1115.29 185.622L1115.29 185.625L1115.87 184.81ZM1106.05 168.264L1106.03 167.265L1104.93 167.292L1105.06 168.382L1106.05 168.264ZM1128.01 167.719L1128.99 167.532L1128.83 166.698L1127.98 166.719L1128.01 167.719ZM1131.78 173.537L1132.33 172.701V172.701L1131.78 173.537ZM1146.51 173.946L1146 173.086V173.086L1146.51 173.946ZM1149.24 169.719L1150.24 169.736L1150.24 169.718L1150.24 169.7L1149.24 169.719ZM1147.15 165.946L1146.57 166.761L1146.57 166.766L1146.58 166.77L1147.15 165.946ZM1140.74 163.674L1140.55 164.656L1140.55 164.656L1140.74 163.674ZM1128.55 161.355L1128.74 160.373L1128.73 160.371L1128.55 161.355ZM1112.92 154.31L1112.21 155.014L1112.21 155.017L1112.92 154.31ZM1107.83 141.128L1108.83 141.134V141.122L1107.83 141.128ZM1111.55 129.174L1112.35 129.779L1112.35 129.776L1111.55 129.174ZM1122.28 121.537L1121.93 120.602V120.602L1122.28 121.537ZM1161.05 124.855L1160.47 125.664L1160.47 125.666L1161.05 124.855ZM170.364 63.4905L171.35 63.326C170.553 58.5439 167.343 53.5305 163.624 48.6879C161.75 46.2493 159.714 43.813 157.739 41.4385C155.757 39.0566 153.838 36.7378 152.17 34.5052L151.369 35.1036L150.568 35.7021C152.272 37.9832 154.224 40.3411 156.201 42.7176C158.184 45.1013 160.193 47.5049 162.038 49.9062C165.753 54.7433 168.669 59.4095 169.377 63.6549L170.364 63.4905ZM151.369 35.1036L152.245 34.6221C150.356 31.1824 150.727 29.1156 150.211 25.9536C149.695 22.7854 148.291 19.1866 142.96 13.4385L142.227 14.1185L141.494 14.7985C146.634 20.341 147.801 23.594 148.237 26.2753C148.675 28.9629 148.382 31.7433 150.492 35.5851L151.369 35.1036ZM142.227 14.1185L141.409 13.5431L138.08 18.2748L138.898 18.8502L139.715 19.4256L143.045 14.694L142.227 14.1185ZM138.898 18.8502L138.08 18.2748C132.937 25.5838 123.212 36.2297 116.342 41.9306L116.98 42.7001L117.619 43.4697C124.632 37.6501 134.476 26.8718 139.715 19.4256L138.898 18.8502ZM116.98 42.7001L116.342 41.9306C114.101 43.7902 111.808 45.6952 109.523 47.6148L110.166 48.3805L110.81 49.1462C113.09 47.2307 115.378 45.329 117.619 43.4697L116.98 42.7001ZM110.166 48.3805L109.523 47.6148C93.4849 61.0872 74.0651 88.8659 63.5983 106.919L64.4634 107.42L65.3285 107.922C75.7655 89.9204 95.0448 62.3888 110.81 49.1462L110.166 48.3805ZM64.4634 107.42L63.5497 107.014C53.78 128.977 46.7164 152.046 42.5142 175.714L43.4988 175.889L44.4834 176.064C48.6572 152.556 55.6733 129.642 65.3771 107.827L64.4634 107.42ZM43.4988 175.889L42.5087 175.748C41.4331 183.312 40.8711 190.94 40.8267 198.58L41.8267 198.586L42.8266 198.591C42.8705 191.042 43.4259 183.504 44.4888 176.03L43.4988 175.889ZM41.8267 198.586L40.828 198.534L40.4996 204.901L41.4982 204.952L42.4969 205.004L42.8253 198.637L41.8267 198.586ZM41.4982 204.952L42.3187 205.524C66.1043 171.39 87.992 150.89 97.5993 140.746L96.8732 140.058L96.1471 139.37C86.6002 149.451 64.5724 170.09 40.6778 204.38L41.4982 204.952ZM96.8732 140.058L97.5656 140.78C103.941 134.662 110.517 128.68 115.983 123.613C121.412 118.579 125.81 114.391 127.725 111.929L126.936 111.315L126.147 110.701C124.356 113.003 120.107 117.062 114.623 122.146C109.176 127.196 102.573 133.203 96.1809 139.336L96.8732 140.058ZM126.936 111.315L127.438 112.18L173.213 85.6083L172.711 84.7434L172.209 83.8786L126.434 110.45L126.936 111.315ZM172.711 84.7434L173.705 84.6336L171.357 63.3807L170.364 63.4905L169.37 63.6002L171.717 84.8532L172.711 84.7434ZM53.114 121.919L52.2369 121.438C46.8497 131.275 42.0057 144.847 40.3761 161.916L41.3716 162.011L42.3671 162.106C43.9705 145.312 48.7321 132.001 53.991 122.399L53.114 121.919ZM41.3716 162.011L42.1941 161.443C37.0606 154.019 31.4623 150.003 25.0423 147.696C18.6802 145.411 11.5444 144.823 3.43145 144.16L3.35001 145.157L3.26856 146.153C11.4467 146.821 18.3007 147.4 24.3662 149.579C30.3738 151.737 35.6408 155.482 40.5491 162.58L41.3716 162.011ZM3.35001 145.157L3.83854 146.029C7.32374 144.078 11.0849 141.744 15.0128 139.334C18.9493 136.919 23.0643 134.421 27.2922 132.116C35.7632 127.497 44.5952 123.707 53.2056 122.914L53.114 121.919L53.0223 120.923C43.9972 121.753 34.8737 125.704 26.3348 130.36C22.0578 132.692 17.9043 135.214 13.9669 137.629C10.0209 140.05 6.30275 142.357 2.86147 144.284L3.35001 145.157ZM43.6631 210.671L44.5786 211.073C44.9212 210.294 47.2887 206.105 52.3525 199.271C57.3967 192.464 65.0853 183.074 76.0311 171.897L75.3167 171.197L74.6022 170.498C63.5924 181.74 55.8443 191.2 50.7456 198.08C45.6667 204.935 43.1851 209.273 42.7475 210.269L43.6631 210.671ZM75.3167 171.197L76.079 171.845C95.7836 148.634 120.486 129.116 159.525 112.148L159.126 111.231L158.727 110.314C119.425 127.396 94.4679 147.093 74.5543 170.55L75.3167 171.197ZM159.126 111.231L159.658 112.078C160.761 111.385 166.444 108.511 175.114 104.803L174.721 103.884L174.327 102.964C165.666 106.669 159.848 109.597 158.594 110.384L159.126 111.231ZM174.721 103.884L175.114 104.803C196.445 95.6802 232.751 84.2625 255.757 83.2873L255.715 82.2882L255.673 81.2891C232.306 82.2796 195.736 93.8084 174.327 102.964L174.721 103.884ZM255.715 82.2882L255.757 83.2873C257.89 83.1969 259.973 83.1737 262 83.2237L262.025 82.224L262.049 81.2243C259.974 81.1731 257.845 81.197 255.673 81.2891L255.715 82.2882ZM262.025 82.224C261.276 81.5616 261.276 81.5616 261.276 81.5616C261.276 81.5616 261.276 81.5617 261.276 81.5617C261.275 81.5617 261.275 81.5618 261.275 81.5619C261.275 81.5621 261.275 81.5624 261.275 81.5628C261.274 81.5636 261.273 81.5647 261.271 81.5663C261.269 81.5694 261.265 81.574 261.259 81.58C261.249 81.5922 261.232 81.6104 261.211 81.6344C261.169 81.6824 261.106 81.7537 261.023 81.8472C260.858 82.0342 260.616 82.3096 260.304 82.664C259.68 83.3727 258.78 84.3969 257.674 85.6593L258.427 86.3181L259.179 86.9769C260.283 85.7159 261.182 84.693 261.805 83.9855C262.116 83.6318 262.359 83.3569 262.523 83.1704C262.605 83.0772 262.668 83.0061 262.71 82.9584C262.731 82.9345 262.747 82.9165 262.758 82.9044C262.763 82.8984 262.767 82.8939 262.77 82.8908C262.771 82.8893 262.772 82.8882 262.773 82.8875C262.773 82.8871 262.774 82.8868 262.774 82.8866C262.774 82.8865 262.774 82.8865 262.774 82.8864C262.774 82.8864 262.774 82.8864 262.774 82.8864C262.774 82.8864 262.774 82.8863 262.025 82.224ZM258.427 86.3181L257.781 85.5545C254.523 88.3091 250.057 91.4409 245.369 94.8624C240.709 98.2637 235.858 101.933 231.937 105.706C228.041 109.456 224.932 113.431 223.943 117.467C223.442 119.513 223.485 121.579 224.246 123.614C225.004 125.64 226.448 127.568 228.641 129.39L229.28 128.621L229.92 127.852C227.925 126.194 226.727 124.538 226.119 122.913C225.515 121.297 225.469 119.645 225.886 117.943C226.733 114.483 229.487 110.84 233.324 107.147C237.137 103.478 241.89 99.8777 246.548 96.4779C251.178 93.0983 255.743 89.8973 259.072 87.0817L258.427 86.3181ZM229.28 128.621L229.06 127.646C199.861 134.247 151.297 152.469 124.47 167.808L124.966 168.676L125.463 169.544C152.102 154.312 200.478 136.158 229.501 129.597L229.28 128.621ZM124.966 168.676L124.478 167.804C100.723 181.099 77.9352 196.483 58.3577 218.334L59.1025 219.001L59.8473 219.669C79.2179 198.048 101.794 182.791 125.455 169.549L124.966 168.676ZM59.1025 219.001L58.3556 218.336L32.1979 247.72L32.9448 248.385L33.6917 249.05L59.8495 219.666L59.1025 219.001ZM32.9448 248.385L33.9446 248.368C33.7642 237.715 36.402 228.423 39.0931 221.785C40.4378 218.468 41.7928 215.822 42.8091 214.008C43.3171 213.102 43.7401 212.404 44.0343 211.936C44.1814 211.701 44.2963 211.525 44.3734 211.408C44.412 211.349 44.4411 211.306 44.4601 211.278C44.4696 211.263 44.4766 211.253 44.481 211.247C44.4831 211.244 44.4847 211.241 44.4855 211.24C44.486 211.239 44.4862 211.239 44.4863 211.239C44.4864 211.239 44.4863 211.239 44.4863 211.239C44.4862 211.239 44.4861 211.239 43.6631 210.671C42.84 210.103 42.8398 210.104 42.8395 210.104C42.8394 210.104 42.8391 210.105 42.8388 210.105C42.8382 210.106 42.8375 210.107 42.8366 210.108C42.8347 210.111 42.8322 210.115 42.8291 210.119C42.8228 210.128 42.8139 210.142 42.8024 210.159C42.7795 210.192 42.7465 210.242 42.7039 210.306C42.6189 210.435 42.4959 210.625 42.3406 210.872C42.03 211.367 41.5899 212.093 41.0644 213.031C40.0137 214.906 38.6204 217.628 37.2397 221.034C34.48 227.84 31.7587 237.405 31.9449 248.402L32.9448 248.385ZM115.721 122.364L116.524 122.959L146.131 82.9975L145.327 82.4022L144.524 81.8069L114.917 121.769L115.721 122.364ZM145.327 82.4022L146.093 83.0455L152.957 74.8765L152.191 74.2332L151.425 73.5899L144.561 81.7589L145.327 82.4022ZM152.191 74.2332L152.957 74.8765C164.864 60.7053 177.577 47.2317 191.033 34.5227L190.347 33.7957L189.66 33.0687C176.148 45.8304 163.382 59.3599 151.425 73.5899L152.191 74.2332ZM190.347 33.7957L191.033 34.5227C191.452 34.1271 192.994 32.9755 195.543 31.2745C198.061 29.5946 201.5 27.4202 205.655 24.9916C213.968 20.1334 225.132 14.2681 237.52 9.3106L237.149 8.38218L236.777 7.45376C224.275 12.4568 213.021 18.3704 204.646 23.2649C200.458 25.7126 196.986 27.908 194.433 29.6108C191.913 31.2924 190.224 32.5364 189.66 33.0687L190.347 33.7957ZM237.149 8.38218L237.52 9.3106C243.3 6.99775 249.532 4.74852 256.342 2.58095L256.039 1.62805L255.735 0.675157C248.88 2.85717 242.603 5.12268 236.777 7.45376L237.149 8.38218ZM256.039 1.62805L255.125 1.22191L252.467 7.20188L253.381 7.60802L254.295 8.01416L256.952 2.03419L256.039 1.62805ZM253.381 7.60802L252.467 7.20188C245.35 23.214 234.773 37.4492 221.495 48.8829L222.147 49.6407L222.8 50.3984C236.302 38.7718 247.058 24.2964 254.295 8.01416L253.381 7.60802ZM222.147 49.6407L222.435 48.6829L205.489 43.5992L205.202 44.557L204.914 45.5148L221.86 50.5985L222.147 49.6407ZM205.202 44.557L204.458 45.2259L214.626 56.523L215.369 55.8541L216.112 55.1851L205.945 43.888L205.202 44.557ZM215.369 55.8541L214.723 55.0912L213.911 55.7785L214.558 56.5414L215.204 57.3043L216.016 56.617L215.369 55.8541ZM214.558 56.5414L213.911 55.7785C192.324 74.0729 169.136 90.3895 144.626 104.531L145.126 105.397L145.626 106.263C170.239 92.0619 193.526 75.6762 215.204 57.3043L214.558 56.5414ZM145.126 105.397L144.626 104.531L115.221 121.498L115.721 122.364L116.22 123.23L145.626 106.263L145.126 105.397ZM199.135 42.9321L198.446 42.2074L125.453 111.605L126.142 112.33L126.831 113.055L199.824 43.6569L199.135 42.9321ZM126.142 112.33L126.848 113.038C164.702 75.3245 202.83 37.0167 251.988 6.23493L251.458 5.38737L250.927 4.53982C201.547 35.4602 163.266 73.9319 125.436 111.622L126.142 112.33ZM199.135 42.9321L198.446 42.2073L125.753 111.306L126.442 112.03L127.131 112.755L199.824 43.6569L199.135 42.9321ZM126.442 112.03L127.106 112.778C169.598 75.0052 205.698 37.0196 252.011 6.22006L251.458 5.38737L250.904 4.55469C204.435 35.4573 168.11 73.652 125.777 111.283L126.442 112.03ZM202.461 185.393L201.513 185.711L201.959 187.04L202.907 186.722L203.855 186.404L203.409 185.075L202.461 185.393ZM202.907 186.722L201.959 187.04C203.729 192.313 206.332 200.959 207.8 206.329L208.764 206.066L209.729 205.802C208.252 200.4 205.639 191.717 203.855 186.404L202.907 186.722ZM208.764 206.066L207.8 206.329C211.629 220.338 215.559 235.015 216.309 249.679L217.308 249.628L218.307 249.577C217.544 234.663 213.551 219.782 209.729 205.802L208.764 206.066ZM217.308 249.628L217.839 248.781C204.332 240.316 193.195 234.477 169.736 220.59L169.227 221.45L168.717 222.311C192.281 236.261 203.283 242.019 216.777 250.475L217.308 249.628ZM169.227 221.45L169.736 220.59C159.952 214.797 143.787 205.995 133.541 201.042L133.106 201.942L132.671 202.842C142.857 207.767 158.972 216.541 168.717 222.311L169.227 221.45ZM133.106 201.942L133.541 201.042L121.884 195.406L121.449 196.307L121.014 197.207L132.671 202.842L133.106 201.942ZM121.449 196.307L122.184 196.985C145.287 171.945 174.943 153.877 207.789 144.83L207.524 143.866L207.258 142.902C174.051 152.048 144.071 170.314 120.714 195.628L121.449 196.307ZM207.524 143.866L207.802 144.826L213.592 143.147L213.314 142.186L213.035 141.226L207.245 142.905L207.524 143.866ZM213.314 142.186L212.478 141.637L205.914 151.639L206.75 152.188L207.586 152.736L214.15 142.735L213.314 142.186ZM206.75 152.188L205.914 151.639C202.649 156.615 200.556 162.267 199.794 168.169L200.786 168.297L201.777 168.425C202.501 162.823 204.487 157.459 207.586 152.736L206.75 152.188ZM200.786 168.297L199.794 168.169C199.031 174.071 199.619 180.07 201.513 185.711L202.461 185.393L203.409 185.075C201.612 179.72 201.054 174.027 201.777 168.425L200.786 168.297ZM312.532 189.628V188.628H288.35V189.628V190.628H312.532V189.628ZM288.35 189.628L289.298 189.948L320.707 96.8568L319.759 96.5371L318.812 96.2174L287.402 189.308L288.35 189.628ZM319.759 96.5371V97.5371H349.714V96.5371V95.5371H319.759V96.5371ZM349.714 96.5371L348.766 96.8568L380.175 189.948L381.123 189.628L382.07 189.308L350.661 96.2174L349.714 96.5371ZM381.123 189.628V188.628H356.941V189.628V190.628H381.123V189.628ZM356.941 189.628L357.895 189.329L336.031 119.692L335.077 119.992L334.123 120.291L355.987 189.928L356.941 189.628ZM335.077 119.992V118.992H334.35V119.992V120.992H335.077V119.992ZM334.35 119.992L333.396 119.693L311.578 189.329L312.532 189.628L313.486 189.927L335.304 120.291L334.35 119.992ZM309.305 152.992V153.992H359.85V152.992V151.992H309.305V152.992ZM359.85 152.992H358.85V170.083H359.85H360.85V152.992H359.85ZM359.85 170.083V169.083H309.305V170.083V171.083H359.85V170.083ZM309.305 170.083H310.305V152.992H309.305H308.305V170.083H309.305ZM413.373 149.81H412.373V189.628H413.373H414.373V149.81H413.373ZM413.373 189.628V188.628H391.145V189.628V190.628H413.373V189.628ZM391.145 189.628H392.145V119.81H391.145H390.145V189.628H391.145ZM391.145 119.81V120.81H412.282V119.81V118.81H391.145V119.81ZM412.282 119.81H411.282V132.628H412.282H413.282V119.81H412.282ZM412.282 132.628V133.628H413.055V132.628V131.628H412.282V132.628ZM413.055 132.628L413.995 132.968C415.468 128.895 417.968 125.724 421.509 123.421L420.964 122.583L420.418 121.744C416.504 124.29 413.732 127.815 412.114 132.288L413.055 132.628ZM420.964 122.583L421.514 123.418C425.054 121.087 429.295 119.901 434.282 119.901V118.901V117.901C428.966 117.901 424.328 119.17 420.414 121.747L420.964 122.583ZM434.282 118.901V119.901C439.036 119.901 443.107 120.97 446.532 123.071L447.055 122.219L447.577 121.367C443.79 119.043 439.345 117.901 434.282 117.901V118.901ZM447.055 122.219L446.54 123.076C450.008 125.157 452.699 128.074 454.617 131.853L455.509 131.401L456.401 130.948C454.319 126.848 451.374 123.644 447.569 121.361L447.055 122.219ZM455.509 131.401L454.622 131.862C456.564 135.602 457.539 140.011 457.509 145.122L458.509 145.128L459.509 145.134C459.54 139.76 458.515 135.018 456.397 130.94L455.509 131.401ZM458.509 145.128H457.509V189.628H458.509H459.509V145.128H458.509ZM458.509 189.628V188.628H436.282V189.628V190.628H458.509V189.628ZM436.282 189.628H437.282V149.492H436.282H435.282V189.628H436.282ZM436.282 149.492L437.282 149.499C437.313 145.449 436.283 142.145 434.064 139.725L433.327 140.401L432.59 141.076C434.372 143.02 435.311 145.777 435.282 149.484L436.282 149.492ZM433.327 140.401L434.07 139.731C431.873 137.298 428.838 136.128 425.1 136.128V137.128V138.128C428.393 138.128 430.842 139.14 432.585 141.071L433.327 140.401ZM425.1 137.128V136.128C422.615 136.128 420.378 136.678 418.419 137.807L418.918 138.674L419.417 139.54C421.034 138.608 422.919 138.128 425.1 138.128V137.128ZM418.918 138.674L418.424 137.804C416.49 138.905 414.993 140.49 413.939 142.533L414.827 142.992L415.716 143.45C416.601 141.735 417.831 140.442 419.413 139.543L418.918 138.674ZM414.827 142.992L413.933 142.544C412.91 144.59 412.404 147.02 412.373 149.799L413.373 149.81L414.373 149.821C414.402 147.266 414.866 145.151 415.722 143.439L414.827 142.992ZM472.27 189.628H473.27V119.81H472.27H471.27V189.628H472.27ZM472.27 119.81V120.81H494.498V119.81V118.81H472.27V119.81ZM494.498 119.81H493.498V189.628H494.498H495.498V119.81H494.498ZM494.498 189.628V188.628H472.27V189.628V190.628H494.498V189.628ZM483.407 111.674V110.674C480.529 110.674 478.091 109.733 476.038 107.846L475.361 108.583L474.685 109.319C477.117 111.554 480.042 112.674 483.407 112.674V111.674ZM475.361 108.583L476.043 107.851C473.994 105.94 472.998 103.686 472.998 101.037H471.998H470.998C470.998 104.267 472.244 107.043 474.679 109.314L475.361 108.583ZM471.998 101.037H472.998C472.998 98.4224 473.991 96.2002 476.038 94.3189L475.361 93.5826L474.685 92.8463C472.247 95.0862 470.998 97.8337 470.998 101.037H471.998ZM475.361 93.5826L476.043 94.314C478.097 92.3991 480.534 91.4462 483.407 91.4462V90.4462V89.4462C480.038 89.4462 477.111 90.5843 474.679 92.8512L475.361 93.5826ZM483.407 90.4462V91.4462C486.313 91.4462 488.746 92.4007 490.765 94.3093L491.452 93.5826L492.139 92.8559C489.734 90.5827 486.804 89.4462 483.407 89.4462V90.4462ZM491.452 93.5826L490.776 94.3189C492.823 96.2002 493.816 98.4224 493.816 101.037H494.816H495.816C495.816 97.8337 494.566 95.0862 492.129 92.8463L491.452 93.5826ZM494.816 101.037H493.816C493.816 103.686 492.82 105.94 490.77 107.851L491.452 108.583L492.134 109.314C494.57 107.043 495.816 104.267 495.816 101.037H494.816ZM491.452 108.583L490.771 107.851C488.752 109.731 486.317 110.674 483.407 110.674V111.674V112.674C486.799 112.674 489.728 111.555 492.134 109.314L491.452 108.583ZM508.645 189.628H509.645V119.81H508.645H507.645V189.628H508.645ZM508.645 119.81V120.81H529.782V119.81V118.81H508.645V119.81ZM529.782 119.81H528.782V132.628H529.782H530.782V119.81H529.782ZM529.782 132.628V133.628H530.555V132.628V131.628H529.782V132.628ZM530.555 132.628L531.5 132.952C532.891 128.896 535.224 125.724 538.497 123.398L537.918 122.583L537.339 121.767C533.704 124.35 531.127 127.876 529.609 132.304L530.555 132.628ZM537.918 122.583L538.497 123.398C541.761 121.079 545.673 119.901 550.282 119.901V118.901V117.901C545.314 117.901 540.984 119.177 537.339 121.767L537.918 122.583ZM550.282 118.901V119.901C554.951 119.901 558.891 121.094 562.152 123.44L562.736 122.628L563.32 121.816C559.673 119.192 555.309 117.901 550.282 117.901V118.901ZM562.736 122.628L562.152 123.44C565.407 125.781 567.465 128.902 568.352 132.847L569.327 132.628L570.303 132.409C569.31 127.99 566.975 124.445 563.32 121.816L562.736 122.628ZM569.327 132.628V133.628H570.055V132.628V131.628H569.327V132.628ZM570.055 132.628L571.009 132.928C572.239 129.006 574.636 125.873 578.239 123.51L577.691 122.674L577.142 121.837C573.17 124.443 570.476 127.947 569.1 132.329L570.055 132.628ZM577.691 122.674L578.244 123.507C581.847 121.114 586.118 119.901 591.1 119.901V118.901V117.901C585.779 117.901 581.111 119.202 577.138 121.84L577.691 122.674ZM591.1 118.901V119.901C597.471 119.901 602.564 121.936 606.474 125.961L607.191 125.264L607.908 124.568C603.576 120.108 597.942 117.901 591.1 117.901V118.901ZM607.191 125.264L606.476 125.964C610.372 129.945 612.373 135.457 612.373 142.628H613.373H614.373C614.373 135.072 612.253 129.008 607.906 124.565L607.191 125.264ZM613.373 142.628H612.373V189.628H613.373H614.373V142.628H613.373ZM613.373 189.628V188.628H591.145V189.628V190.628H613.373V189.628ZM591.145 189.628H592.145V147.719H591.145H590.145V189.628H591.145ZM591.145 147.719H592.145C592.145 144.07 591.207 141.128 589.177 139.063L588.464 139.764L587.751 140.466C589.296 142.037 590.145 144.398 590.145 147.719H591.145ZM588.464 139.764L589.182 139.069C587.185 137.004 584.596 135.992 581.509 135.992V136.992V137.992C584.119 137.992 586.167 138.828 587.745 140.46L588.464 139.764ZM581.509 136.992V135.992C578.209 135.992 575.507 137.082 573.531 139.332L574.282 139.992L575.033 140.652C576.571 138.901 578.689 137.992 581.509 137.992V136.992ZM574.282 139.992L573.53 139.332C571.603 141.53 570.691 144.438 570.691 147.946H571.691H572.691C572.691 144.787 573.506 142.393 575.034 140.651L574.282 139.992ZM571.691 147.946H570.691V189.628H571.691H572.691V147.946H571.691ZM571.691 189.628V188.628H550.327V189.628V190.628H571.691V189.628ZM550.327 189.628H551.327V147.492H550.327H549.327V189.628H550.327ZM550.327 147.492H551.327C551.327 144.064 550.394 141.236 548.421 139.127L547.691 139.81L546.961 140.493C548.503 142.142 549.327 144.434 549.327 147.492H550.327ZM547.691 139.81L548.421 139.127C546.451 137.021 543.856 135.992 540.736 135.992V136.992V137.992C543.375 137.992 545.416 138.841 546.961 140.493L547.691 139.81ZM540.736 136.992V135.992C538.628 135.992 536.727 136.505 535.065 137.556L535.6 138.401L536.135 139.246C537.443 138.418 538.966 137.992 540.736 137.992V136.992ZM535.6 138.401L535.078 137.548C533.419 138.563 532.13 140.014 531.206 141.863L532.1 142.31L532.994 142.757C533.767 141.212 534.811 140.056 536.122 139.254L535.6 138.401ZM532.1 142.31L531.199 141.876C530.303 143.735 529.873 145.889 529.873 148.31H530.873H531.873C531.873 146.124 532.261 144.279 533.001 142.744L532.1 142.31ZM530.873 148.31H529.873V189.628H530.873H531.873V148.31H530.873ZM530.873 189.628V188.628H508.645V189.628V190.628H530.873V189.628ZM659.736 190.946V189.946C652.54 189.946 646.415 188.475 641.322 185.577L640.827 186.446L640.333 187.315C645.785 190.417 652.266 191.946 659.736 191.946V190.946ZM640.827 186.446L641.328 185.58C636.249 182.645 632.336 178.572 629.575 173.343L628.691 173.81L627.807 174.277C630.742 179.836 634.92 184.187 640.327 187.312L640.827 186.446ZM628.691 173.81L629.578 173.349C626.846 168.089 625.464 161.965 625.464 154.946H624.464H623.464C623.464 162.231 624.9 168.682 627.803 174.271L628.691 173.81ZM624.464 154.946H625.464C625.464 147.897 626.846 141.773 629.577 136.546L628.691 136.083L627.805 135.62C624.899 141.18 623.464 147.632 623.464 154.946H624.464ZM628.691 136.083L629.576 136.548C632.337 131.289 636.249 127.218 641.324 124.314L640.827 123.446L640.331 122.578C634.92 125.674 630.741 130.027 627.806 135.618L628.691 136.083ZM640.827 123.446L641.326 124.313C646.418 121.386 652.542 119.901 659.736 119.901V118.901V117.901C652.264 117.901 645.782 119.445 640.329 122.579L640.827 123.446ZM659.736 118.901V119.901C666.931 119.901 673.038 121.386 678.1 124.312L678.6 123.446L679.1 122.58C673.677 119.445 667.208 117.901 659.736 117.901V118.901ZM678.6 123.446L678.105 124.315C683.209 127.219 687.119 131.289 689.849 136.544L690.736 136.083L691.624 135.622C688.717 130.028 684.536 125.673 679.095 122.577L678.6 123.446ZM690.736 136.083L689.852 136.55C692.612 141.776 694.009 147.898 694.009 154.946H695.009H696.009C696.009 147.631 694.558 141.177 691.621 135.616L690.736 136.083ZM695.009 154.946H694.009C694.009 161.963 692.613 168.086 689.851 173.345L690.736 173.81L691.622 174.275C694.557 168.685 696.009 162.233 696.009 154.946H695.009ZM690.736 173.81L689.85 173.347C687.12 178.572 683.209 182.644 678.102 185.579L678.6 186.446L679.098 187.313C684.536 184.188 688.716 179.836 691.623 174.273L690.736 173.81ZM678.6 186.446L678.103 185.578C673.041 188.475 666.933 189.946 659.736 189.946V190.946V191.946C667.207 191.946 673.674 190.417 679.097 187.314L678.6 186.446ZM659.873 174.174V175.174C662.762 175.174 665.262 174.28 667.308 172.468L666.645 171.719L665.983 170.97C664.332 172.431 662.316 173.174 659.873 173.174V174.174ZM666.645 171.719L667.308 172.468C669.317 170.69 670.809 168.253 671.821 165.217L670.873 164.901L669.924 164.585C668.997 167.367 667.671 169.475 665.983 170.97L666.645 171.719ZM670.873 164.901L671.818 165.226C672.862 162.19 673.373 158.713 673.373 154.81H672.373H671.373C671.373 158.543 670.884 161.793 669.927 164.576L670.873 164.901ZM672.373 154.81H673.373C673.373 150.848 672.862 147.34 671.818 144.303L670.873 144.628L669.927 144.953C670.883 147.734 671.373 151.014 671.373 154.81H672.373ZM670.873 144.628L671.821 144.312C670.809 141.276 669.317 138.839 667.308 137.061L666.645 137.81L665.983 138.559C667.671 140.053 668.997 142.162 669.924 144.944L670.873 144.628ZM666.645 137.81L667.308 137.061C665.262 135.249 662.762 134.355 659.873 134.355V135.355V136.355C662.316 136.355 664.332 137.098 665.983 138.559L666.645 137.81ZM659.873 135.355V134.355C656.901 134.355 654.33 135.243 652.222 137.051L652.873 137.81L653.524 138.569C655.233 137.104 657.329 136.355 659.873 136.355V135.355ZM652.873 137.81L652.216 137.056C650.177 138.831 648.653 141.267 647.609 144.303L648.555 144.628L649.5 144.953C650.456 142.171 651.811 140.061 653.53 138.564L652.873 137.81ZM648.555 144.628L647.606 144.312C646.595 147.346 646.1 150.851 646.1 154.81H647.1H648.1C648.1 151.011 648.575 147.729 649.503 144.944L648.555 144.628ZM647.1 154.81H646.1C646.1 158.71 646.595 162.184 647.606 165.217L648.555 164.901L649.503 164.585C648.575 161.799 648.1 158.546 648.1 154.81H647.1ZM648.555 164.901L647.609 165.226C648.653 168.262 650.177 170.697 652.216 172.473L652.873 171.719L653.53 170.965C651.811 169.468 650.456 167.358 649.5 164.576L648.555 164.901ZM652.873 171.719L652.222 172.478C654.33 174.285 656.901 175.174 659.873 175.174V174.174V173.174C657.329 173.174 655.233 172.425 653.524 170.96L652.873 171.719ZM706.395 189.628H707.395V96.5371H706.395H705.395V189.628H706.395ZM706.395 96.5371V97.5371H769.941V96.5371V95.5371H706.395V96.5371ZM769.941 96.5371H768.941V114.81H769.941H770.941V96.5371H769.941ZM769.941 114.81V113.81H728.895V114.81V115.81H769.941V114.81ZM728.895 114.81H727.895V133.901H728.895H729.895V114.81H728.895ZM728.895 133.901V134.901H765.895V133.901V132.901H728.895V133.901ZM765.895 133.901H764.895V152.219H765.895H766.895V133.901H765.895ZM765.895 152.219V151.219H728.895V152.219V153.219H765.895V152.219ZM728.895 152.219H727.895V189.628H728.895H729.895V152.219H728.895ZM728.895 189.628V188.628H706.395V189.628V190.628H728.895V189.628ZM808.736 190.946V189.946C801.54 189.946 795.415 188.475 790.322 185.577L789.827 186.446L789.333 187.315C794.785 190.417 801.266 191.946 808.736 191.946V190.946ZM789.827 186.446L790.328 185.58C785.249 182.645 781.336 178.572 778.575 173.343L777.691 173.81L776.807 174.277C779.742 179.836 783.92 184.187 789.327 187.312L789.827 186.446ZM777.691 173.81L778.578 173.349C775.846 168.089 774.464 161.965 774.464 154.946H773.464H772.464C772.464 162.231 773.9 168.682 776.803 174.271L777.691 173.81ZM773.464 154.946H774.464C774.464 147.897 775.846 141.773 778.577 136.546L777.691 136.083L776.805 135.62C773.899 141.18 772.464 147.632 772.464 154.946H773.464ZM777.691 136.083L778.576 136.548C781.337 131.289 785.249 127.218 790.324 124.314L789.827 123.446L789.331 122.578C783.92 125.674 779.741 130.027 776.806 135.618L777.691 136.083ZM789.827 123.446L790.326 124.313C795.418 121.386 801.542 119.901 808.736 119.901V118.901V117.901C801.264 117.901 794.782 119.445 789.329 122.579L789.827 123.446ZM808.736 118.901V119.901C815.931 119.901 822.038 121.386 827.1 124.312L827.6 123.446L828.1 122.58C822.677 119.445 816.208 117.901 808.736 117.901V118.901ZM827.6 123.446L827.105 124.315C832.209 127.219 836.119 131.289 838.849 136.544L839.736 136.083L840.624 135.622C837.717 130.028 833.536 125.673 828.095 122.577L827.6 123.446ZM839.736 136.083L838.852 136.55C841.612 141.776 843.009 147.898 843.009 154.946H844.009H845.009C845.009 147.631 843.558 141.177 840.621 135.616L839.736 136.083ZM844.009 154.946H843.009C843.009 161.963 841.613 168.086 838.851 173.345L839.736 173.81L840.622 174.275C843.557 168.685 845.009 162.233 845.009 154.946H844.009ZM839.736 173.81L838.85 173.347C836.12 178.572 832.209 182.644 827.102 185.579L827.6 186.446L828.098 187.313C833.536 184.188 837.716 179.836 840.623 174.273L839.736 173.81ZM827.6 186.446L827.103 185.578C822.041 188.475 815.933 189.946 808.736 189.946V190.946V191.946C816.207 191.946 822.674 190.417 828.097 187.314L827.6 186.446ZM808.873 174.174V175.174C811.762 175.174 814.262 174.28 816.308 172.468L815.645 171.719L814.983 170.97C813.332 172.431 811.316 173.174 808.873 173.174V174.174ZM815.645 171.719L816.308 172.468C818.317 170.69 819.809 168.253 820.821 165.217L819.873 164.901L818.924 164.585C817.997 167.367 816.671 169.475 814.983 170.97L815.645 171.719ZM819.873 164.901L820.818 165.226C821.862 162.19 822.373 158.713 822.373 154.81H821.373H820.373C820.373 158.543 819.884 161.793 818.927 164.576L819.873 164.901ZM821.373 154.81H822.373C822.373 150.848 821.862 147.34 820.818 144.303L819.873 144.628L818.927 144.953C819.883 147.734 820.373 151.014 820.373 154.81H821.373ZM819.873 144.628L820.821 144.312C819.809 141.276 818.317 138.839 816.308 137.061L815.645 137.81L814.983 138.559C816.671 140.053 817.997 142.162 818.924 144.944L819.873 144.628ZM815.645 137.81L816.308 137.061C814.262 135.249 811.762 134.355 808.873 134.355V135.355V136.355C811.316 136.355 813.332 137.098 814.983 138.559L815.645 137.81ZM808.873 135.355V134.355C805.901 134.355 803.33 135.243 801.222 137.051L801.873 137.81L802.524 138.569C804.233 137.104 806.329 136.355 808.873 136.355V135.355ZM801.873 137.81L801.216 137.056C799.177 138.831 797.653 141.267 796.609 144.303L797.555 144.628L798.5 144.953C799.456 142.171 800.811 140.061 802.53 138.564L801.873 137.81ZM797.555 144.628L796.606 144.312C795.595 147.346 795.1 150.851 795.1 154.81H796.1H797.1C797.1 151.011 797.575 147.729 798.503 144.944L797.555 144.628ZM796.1 154.81H795.1C795.1 158.71 795.595 162.184 796.606 165.217L797.555 164.901L798.503 164.585C797.575 161.799 797.1 158.546 797.1 154.81H796.1ZM797.555 164.901L796.609 165.226C797.653 168.262 799.177 170.697 801.216 172.473L801.873 171.719L802.53 170.965C800.811 169.468 799.456 167.358 798.5 164.576L797.555 164.901ZM801.873 171.719L801.222 172.478C803.33 174.285 805.901 175.174 808.873 175.174V174.174V173.174C806.329 173.174 804.233 172.425 802.524 170.96L801.873 171.719ZM855.395 189.628H856.395V119.81H855.395H854.395V189.628H855.395ZM855.395 119.81V120.81H876.986V119.81V118.81H855.395V119.81ZM876.986 119.81H875.986V132.537H876.986H877.986V119.81H876.986ZM876.986 132.537V133.537H877.714V132.537V131.537H876.986V132.537ZM877.714 132.537L878.678 132.803C879.911 128.341 881.892 125.128 884.555 123.053L883.941 122.264L883.326 121.476C880.232 123.886 878.062 127.522 876.75 132.271L877.714 132.537ZM883.941 122.264L884.561 123.049C887.255 120.922 890.383 119.855 893.986 119.855V118.855V117.855C889.953 117.855 886.384 119.061 883.321 121.48L883.941 122.264ZM893.986 118.855V119.855C894.968 119.855 895.982 119.927 897.031 120.073L897.168 119.083L897.306 118.092C896.172 117.935 895.066 117.855 893.986 117.855V118.855ZM897.168 119.083L897.058 120.076C898.098 120.192 899.057 120.379 899.935 120.634L900.214 119.674L900.492 118.713C899.492 118.423 898.42 118.215 897.279 118.089L897.168 119.083ZM900.214 119.674H899.214V138.992H900.214H901.214V119.674H900.214ZM900.214 138.992L900.538 138.046C899.386 137.651 897.917 137.352 896.154 137.136L896.032 138.128L895.91 139.121C897.602 139.328 898.92 139.605 899.889 139.938L900.214 138.992ZM896.032 138.128L896.156 137.136C894.429 136.92 892.871 136.81 891.486 136.81V137.81V138.81C892.769 138.81 894.241 138.912 895.908 139.12L896.032 138.128ZM891.486 137.81V136.81C888.695 136.81 886.146 137.437 883.863 138.709L884.35 139.583L884.837 140.456C886.797 139.364 889.005 138.81 891.486 138.81V137.81ZM884.35 139.583L883.868 138.707C881.615 139.947 879.832 141.699 878.53 143.945L879.395 144.446L880.261 144.948C881.383 143.012 882.903 141.521 884.832 140.459L884.35 139.583ZM879.395 144.446L878.528 143.949C877.245 146.185 876.623 148.787 876.623 151.719H877.623H878.623C878.623 149.075 879.182 146.828 880.263 144.944L879.395 144.446ZM877.623 151.719H876.623V189.628H877.623H878.623V151.719H877.623ZM877.623 189.628V188.628H855.395V189.628V190.628H877.623V189.628ZM954.316 159.492H955.316V119.81H954.316H953.316V159.492H954.316ZM954.316 119.81V120.81H976.498V119.81V118.81H954.316V119.81ZM976.498 119.81H975.498V189.628H976.498H977.498V119.81H976.498ZM976.498 189.628V188.628H955.316V189.628V190.628H976.498V189.628ZM955.316 189.628H956.316V176.628H955.316H954.316V189.628H955.316ZM955.316 176.628V175.628H954.589V176.628V177.628H955.316V176.628ZM954.589 176.628L953.648 176.288C952.174 180.364 949.67 183.586 946.12 185.981L946.68 186.81L947.239 187.639C951.144 185.004 953.912 181.438 955.529 176.968L954.589 176.628ZM946.68 186.81L946.122 185.98C942.617 188.335 938.35 189.537 933.27 189.537V190.537V191.537C938.676 191.537 943.348 190.254 947.237 187.64L946.68 186.81ZM933.27 190.537V189.537C928.671 189.537 924.673 188.484 921.243 186.409L920.725 187.264L920.207 188.12C923.989 190.408 928.354 191.537 933.27 191.537V190.537ZM920.725 187.264L921.243 186.409C917.802 184.327 915.125 181.424 913.206 177.673L912.316 178.128L911.426 178.584C913.507 182.651 916.436 185.838 920.207 188.12L920.725 187.264ZM912.316 178.128L913.208 177.675C911.29 173.899 910.3 169.451 910.27 164.304L909.27 164.31L908.27 164.316C908.302 169.714 909.342 174.478 911.424 178.581L912.316 178.128ZM909.27 164.31H910.27V119.81H909.27H908.27V164.31H909.27ZM909.27 119.81V120.81H931.498V119.81V118.81H909.27V119.81ZM931.498 119.81H930.498V159.946H931.498H932.498V119.81H931.498ZM931.498 159.946L930.498 159.954C930.529 163.914 931.579 167.16 933.755 169.571L934.498 168.901L935.24 168.231C933.477 166.278 932.527 163.554 932.498 159.938L931.498 159.946ZM934.498 168.901L933.755 169.571C935.945 171.996 938.914 173.174 942.543 173.174V172.174V171.174C939.384 171.174 936.99 170.169 935.24 168.231L934.498 168.901ZM942.543 172.174V173.174C944.907 173.174 947.061 172.654 948.981 171.595L948.498 170.719L948.015 169.843C946.42 170.723 944.604 171.174 942.543 171.174V172.174ZM948.498 170.719L948.986 171.592C950.945 170.496 952.486 168.917 953.602 166.882L952.725 166.401L951.848 165.92C950.904 167.642 949.626 168.942 948.01 169.846L948.498 170.719ZM952.725 166.401L953.599 166.886C954.76 164.798 955.316 162.319 955.316 159.492H954.316H953.316C953.316 162.058 952.812 164.186 951.851 165.915L952.725 166.401ZM990.645 189.628H991.645V119.81H990.645H989.645V189.628H990.645ZM990.645 119.81V120.81H1011.78V119.81V118.81H990.645V119.81ZM1011.78 119.81H1010.78V132.628H1011.78H1012.78V119.81H1011.78ZM1011.78 132.628V133.628H1012.55V132.628V131.628H1011.78V132.628ZM1012.55 132.628L1013.5 132.952C1014.89 128.896 1017.22 125.724 1020.5 123.398L1019.92 122.583L1019.34 121.767C1015.7 124.35 1013.13 127.876 1011.61 132.304L1012.55 132.628ZM1019.92 122.583L1020.5 123.398C1023.76 121.079 1027.67 119.901 1032.28 119.901V118.901V117.901C1027.31 117.901 1022.98 119.177 1019.34 121.767L1019.92 122.583ZM1032.28 118.901V119.901C1036.95 119.901 1040.89 121.094 1044.15 123.44L1044.74 122.628L1045.32 121.816C1041.67 119.192 1037.31 117.901 1032.28 117.901V118.901ZM1044.74 122.628L1044.15 123.44C1047.41 125.781 1049.47 128.902 1050.35 132.847L1051.33 132.628L1052.3 132.409C1051.31 127.99 1048.98 124.445 1045.32 121.816L1044.74 122.628ZM1051.33 132.628V133.628H1052.05V132.628V131.628H1051.33V132.628ZM1052.05 132.628L1053.01 132.928C1054.24 129.006 1056.64 125.873 1060.24 123.51L1059.69 122.674L1059.14 121.837C1055.17 124.443 1052.48 127.947 1051.1 132.329L1052.05 132.628ZM1059.69 122.674L1060.24 123.507C1063.85 121.114 1068.12 119.901 1073.1 119.901V118.901V117.901C1067.78 117.901 1063.11 119.202 1059.14 121.84L1059.69 122.674ZM1073.1 118.901V119.901C1079.47 119.901 1084.56 121.936 1088.47 125.961L1089.19 125.264L1089.91 124.568C1085.58 120.108 1079.94 117.901 1073.1 117.901V118.901ZM1089.19 125.264L1088.48 125.964C1092.37 129.945 1094.37 135.457 1094.37 142.628H1095.37H1096.37C1096.37 135.072 1094.25 129.008 1089.91 124.565L1089.19 125.264ZM1095.37 142.628H1094.37V189.628H1095.37H1096.37V142.628H1095.37ZM1095.37 189.628V188.628H1073.15V189.628V190.628H1095.37V189.628ZM1073.15 189.628H1074.15V147.719H1073.15H1072.15V189.628H1073.15ZM1073.15 147.719H1074.15C1074.15 144.07 1073.21 141.128 1071.18 139.063L1070.46 139.764L1069.75 140.466C1071.3 142.037 1072.15 144.398 1072.15 147.719H1073.15ZM1070.46 139.764L1071.18 139.069C1069.18 137.004 1066.6 135.992 1063.51 135.992V136.992V137.992C1066.12 137.992 1068.17 138.828 1069.74 140.46L1070.46 139.764ZM1063.51 136.992V135.992C1060.21 135.992 1057.51 137.082 1055.53 139.332L1056.28 139.992L1057.03 140.652C1058.57 138.901 1060.69 137.992 1063.51 137.992V136.992ZM1056.28 139.992L1055.53 139.332C1053.6 141.53 1052.69 144.438 1052.69 147.946H1053.69H1054.69C1054.69 144.787 1055.51 142.393 1057.03 140.651L1056.28 139.992ZM1053.69 147.946H1052.69V189.628H1053.69H1054.69V147.946H1053.69ZM1053.69 189.628V188.628H1032.33V189.628V190.628H1053.69V189.628ZM1032.33 189.628H1033.33V147.492H1032.33H1031.33V189.628H1032.33ZM1032.33 147.492H1033.33C1033.33 144.064 1032.39 141.236 1030.42 139.127L1029.69 139.81L1028.96 140.493C1030.5 142.142 1031.33 144.434 1031.33 147.492H1032.33ZM1029.69 139.81L1030.42 139.127C1028.45 137.021 1025.86 135.992 1022.74 135.992V136.992V137.992C1025.37 137.992 1027.42 138.841 1028.96 140.493L1029.69 139.81ZM1022.74 136.992V135.992C1020.63 135.992 1018.73 136.505 1017.07 137.556L1017.6 138.401L1018.13 139.246C1019.44 138.418 1020.97 137.992 1022.74 137.992V136.992ZM1017.6 138.401L1017.08 137.548C1015.42 138.563 1014.13 140.014 1013.21 141.863L1014.1 142.31L1014.99 142.757C1015.77 141.212 1016.81 140.056 1018.12 139.254L1017.6 138.401ZM1014.1 142.31L1013.2 141.876C1012.3 143.735 1011.87 145.889 1011.87 148.31H1012.87H1013.87C1013.87 146.124 1014.26 144.279 1015 142.744L1014.1 142.31ZM1012.87 148.31H1011.87V189.628H1012.87H1013.87V148.31H1012.87ZM1012.87 189.628V188.628H990.645V189.628V190.628H1012.87V189.628ZM1170.1 141.128L1170.07 140.128L1149.66 140.674L1149.69 141.674L1149.72 142.673L1170.13 142.128L1170.1 141.128ZM1149.69 141.674L1150.68 141.529C1150.44 139.892 1149.79 138.432 1148.73 137.168L1147.96 137.81L1147.2 138.452C1148.02 139.43 1148.52 140.546 1148.7 141.818L1149.69 141.674ZM1147.96 137.81L1148.74 137.178C1147.68 135.886 1146.32 134.899 1144.67 134.206L1144.28 135.128L1143.89 136.05C1145.27 136.63 1146.36 137.43 1147.19 138.442L1147.96 137.81ZM1144.28 135.128L1144.69 134.216C1143.05 133.48 1141.18 133.128 1139.1 133.128V134.128V135.128C1140.96 135.128 1142.54 135.442 1143.87 136.04L1144.28 135.128ZM1139.1 134.128V133.128C1136.39 133.128 1134.02 133.67 1132.02 134.803L1132.51 135.674L1133 136.544C1134.64 135.616 1136.66 135.128 1139.1 135.128V134.128ZM1132.51 135.674L1132.01 134.807C1129.97 135.981 1128.84 137.681 1128.87 139.873L1129.87 139.855L1130.87 139.838C1130.85 138.514 1131.47 137.426 1133.01 136.54L1132.51 135.674ZM1129.87 139.855L1128.87 139.833C1128.84 141.521 1129.53 142.974 1130.84 144.147L1131.51 143.401L1132.17 142.654C1131.25 141.827 1130.85 140.917 1130.87 139.878L1129.87 139.855ZM1131.51 143.401L1130.85 144.156C1132.21 145.333 1134.47 146.176 1137.44 146.789L1137.65 145.81L1137.85 144.83C1134.94 144.232 1133.11 143.469 1132.16 142.646L1131.51 143.401ZM1137.65 145.81L1137.46 146.792L1150.91 149.338L1151.1 148.355L1151.29 147.373L1137.83 144.827L1137.65 145.81ZM1151.1 148.355L1150.91 149.338C1157.79 150.654 1162.77 152.815 1165.97 155.731L1166.65 154.992L1167.32 154.252C1163.73 150.987 1158.35 148.724 1151.29 147.373L1151.1 148.355ZM1166.65 154.992L1165.98 155.734C1169.17 158.616 1170.8 162.428 1170.83 167.27L1171.83 167.264L1172.83 167.258C1172.8 161.919 1170.97 157.549 1167.32 154.249L1166.65 154.992ZM1171.83 167.264L1170.83 167.258C1170.8 171.836 1169.44 175.782 1166.77 179.142L1167.55 179.764L1168.34 180.387C1171.3 176.656 1172.8 172.269 1172.83 167.271L1171.83 167.264ZM1167.55 179.764L1166.77 179.146C1164.1 182.535 1160.44 185.196 1155.72 187.111L1156.1 188.037L1156.48 188.964C1161.46 186.939 1165.43 184.085 1168.34 180.383L1167.55 179.764ZM1156.1 188.037L1155.73 187.109C1151.02 188.993 1145.6 189.946 1139.46 189.946V190.946V191.946C1145.81 191.946 1151.48 190.961 1156.47 188.966L1156.1 188.037ZM1139.46 190.946V189.946C1129.62 189.946 1121.98 187.925 1116.45 183.995L1115.87 184.81L1115.29 185.625C1121.28 189.877 1129.37 191.946 1139.46 191.946V190.946ZM1115.87 184.81L1116.46 183.998C1110.95 180.038 1107.83 174.773 1107.05 168.147L1106.05 168.264L1105.06 168.382C1105.91 175.574 1109.34 181.339 1115.29 185.622L1115.87 184.81ZM1106.05 168.264L1106.08 169.264L1128.03 168.719L1128.01 167.719L1127.98 166.719L1106.03 167.265L1106.05 168.264ZM1128.01 167.719L1127.03 167.906C1127.56 170.698 1128.96 172.88 1131.23 174.373L1131.78 173.537L1132.33 172.701C1130.54 171.527 1129.43 169.831 1128.99 167.532L1128.01 167.719ZM1131.78 173.537L1131.23 174.373C1133.47 175.841 1136.27 176.537 1139.55 176.537V175.537V174.537C1136.54 174.537 1134.16 173.9 1132.33 172.701L1131.78 173.537ZM1139.55 175.537V176.537C1142.52 176.537 1145.03 175.986 1147.02 174.806L1146.51 173.946L1146 173.086C1144.41 174.027 1142.29 174.537 1139.55 174.537V175.537ZM1146.51 173.946L1147.02 174.806C1149.04 173.607 1150.2 171.909 1150.24 169.736L1149.24 169.719L1148.24 169.702C1148.21 171.044 1147.55 172.165 1146 173.086L1146.51 173.946ZM1149.24 169.719L1150.24 169.7C1150.2 167.783 1149.33 166.234 1147.71 165.123L1147.15 165.946L1146.58 166.77C1147.69 167.537 1148.21 168.503 1148.24 169.738L1149.24 169.719ZM1147.15 165.946L1147.72 165.131C1146.18 164.036 1143.88 163.245 1140.92 162.691L1140.74 163.674L1140.55 164.656C1143.41 165.193 1145.38 165.917 1146.57 166.761L1147.15 165.946ZM1140.74 163.674L1140.92 162.691L1128.74 160.373L1128.55 161.355L1128.37 162.338L1140.55 164.656L1140.74 163.674ZM1128.55 161.355L1128.73 160.371C1121.84 159.119 1116.85 156.83 1113.63 153.603L1112.92 154.31L1112.21 155.017C1115.83 158.638 1121.26 161.046 1128.38 162.339L1128.55 161.355ZM1112.92 154.31L1113.63 153.606C1110.41 150.359 1108.8 146.23 1108.83 141.134L1107.83 141.128L1106.83 141.122C1106.8 146.693 1108.58 151.352 1112.21 155.014L1112.92 154.31ZM1107.83 141.128L1108.83 141.122C1108.8 136.647 1109.99 132.885 1112.35 129.779L1111.55 129.174L1110.76 128.568C1108.09 132.068 1106.8 136.276 1106.83 141.135L1107.83 141.128ZM1111.55 129.174L1112.35 129.776C1114.73 126.619 1118.14 124.176 1122.64 122.472L1122.28 121.537L1121.93 120.602C1117.15 122.414 1113.4 125.061 1110.76 128.571L1111.55 129.174ZM1122.28 121.537L1122.64 122.472C1127.13 120.767 1132.48 119.901 1138.69 119.901V118.901V117.901C1132.3 117.901 1126.7 118.792 1121.93 120.602L1122.28 121.537ZM1138.69 118.901V119.901C1148.02 119.901 1155.24 121.86 1160.47 125.664L1161.05 124.855L1161.64 124.047C1155.96 119.912 1148.27 117.901 1138.69 117.901V118.901ZM1161.05 124.855L1160.47 125.666C1165.68 129.429 1168.55 134.583 1169.1 141.211L1170.1 141.128L1171.1 141.045C1170.5 133.855 1167.34 128.161 1161.64 124.045L1161.05 124.855Z" fill="#1E1E1E" mask="url(#path-1-outside-1_2_79)"/>
</svg>
