<svg width="259" height="248" viewBox="0 0 259 248" fill="none" xmlns="http://www.w3.org/2000/svg" shape-rendering="geometricPrecision">
<path d="M167.013 61.8624C165.508 52.8349 154.762 42.5031 148.019 33.4756C144.019 26.1941 149.348 23.7811 138.877 12.4905L135.548 17.2222C130.357 24.5998 120.572 35.3118 113.63 41.0721C111.389 42.9315 109.099 44.8349 106.816 46.7524C90.9148 60.1099 71.5653 87.7651 61.1134 105.792C51.3766 127.682 44.3368 150.673 40.1488 174.261C39.0795 181.78 38.5208 189.363 38.4766 196.958L38.1482 203.324C61.9883 169.112 83.9461 148.542 93.5232 138.43C106.291 126.18 119.88 114.452 123.586 109.687L169.361 83.1154L167.013 61.8624Z" fill="#198A39"/>
<path d="M49.764 120.291C44.4409 130.01 39.6381 143.452 38.0216 160.383C27.9798 145.862 16.291 144.86 0 143.529C13.8529 135.772 32.1284 121.914 49.764 120.291Z" fill="#639C73"/>
<path d="M40.3131 209.043C41.0932 207.267 50.0111 191.989 71.9667 169.569C91.7758 146.235 116.605 126.628 155.776 109.603C156.955 108.863 162.705 105.962 171.371 102.256C192.74 93.1163 229.179 81.643 252.365 80.6602C254.517 80.5689 256.624 80.5454 258.675 80.596C258.675 80.596 257.286 82.1667 255.077 84.6901C241.902 95.8305 209.178 113.072 225.93 126.993C196.82 133.575 148.349 151.762 121.616 167.048C97.9086 180.317 75.2265 195.637 55.7525 217.373L29.5948 246.757C29.2281 225.106 40.3131 209.043 40.3131 209.043Z" fill="#198A39"/>
<path d="M112.371 120.736L141.977 80.7742L148.841 72.6051C160.773 58.4045 173.512 44.903 186.997 32.1677C188.962 30.3118 208.908 16.7147 233.799 6.75413C239.601 4.43216 245.856 2.17479 252.689 0L250.031 5.97997C242.854 22.1271 232.187 36.4825 218.797 48.0126L201.852 42.9289L212.019 54.226L211.208 54.9134C189.575 73.2465 166.337 89.5976 141.776 103.769L112.371 120.736Z" fill="#8DD35F"/>
<path d="M248.108 3.75928L195.785 41.304L122.792 110.702C160.634 73.0001 198.838 34.6104 248.108 3.75928Z" fill="#F9F9F9"/>
<path d="M248.108 3.75928L195.785 41.304L123.092 110.402C165.504 72.7005 201.716 34.6104 248.108 3.75928Z" fill="#F9F9F9"/>
<path d="M199.111 183.765L199.557 185.094C201.334 190.387 203.942 199.052 205.414 204.438C209.24 218.432 213.201 233.211 213.958 248C200.457 239.539 189.388 233.741 165.877 219.822C156.112 214.041 139.972 205.253 129.756 200.314L118.099 194.678C141.329 169.501 171.147 151.335 204.174 142.238L209.964 140.558L203.4 150.56C200.218 155.409 198.178 160.917 197.436 166.669C196.693 172.421 197.265 178.267 199.111 183.765Z" fill="#639C73"/>
</svg>
